<?xml version="1.0" encoding="UTF-8" standalone="no"?>
<!-- Created with Inkscape (http://www.inkscape.org/) -->

<svg
   xmlns:dc="http://purl.org/dc/elements/1.1/"
   xmlns:cc="http://creativecommons.org/ns#"
   xmlns:rdf="http://www.w3.org/1999/02/22-rdf-syntax-ns#"
   xmlns:svg="http://www.w3.org/2000/svg"
   xmlns="http://www.w3.org/2000/svg"
   xmlns:sodipodi="http://sodipodi.sourceforge.net/DTD/sodipodi-0.dtd"
   xmlns:inkscape="http://www.inkscape.org/namespaces/inkscape"
   width="417.70343mm"
   height="145.69716mm"
   viewBox="0 0 1480.0504 516.24952"
   id="svg3870"
   version="1.1"
   inkscape:version="0.91 r13725"
   sodipodi:docname="starsproto.svg">
  <defs
     id="defs3872" />
  <sodipodi:namedview
     id="base"
     pagecolor="#ffffff"
     bordercolor="#666666"
     borderopacity="1.0"
     inkscape:pageopacity="0.0"
     inkscape:pageshadow="2"
     inkscape:zoom="1"
     inkscape:cx="1163.65"
     inkscape:cy="279.05041"
     inkscape:document-units="px"
     inkscape:current-layer="layer1"
     showgrid="false"
     inkscape:window-width="1366"
     inkscape:window-height="717"
     inkscape:window-x="0"
     inkscape:window-y="0"
     inkscape:window-maximized="1"
     fit-margin-top="0"
     fit-margin-left="0"
     fit-margin-right="0"
     fit-margin-bottom="0" />
  <metadata
     id="metadata3875">
    <rdf:RDF>
      <cc:Work
         rdf:about="">
        <dc:format>image/svg+xml</dc:format>
        <dc:type
           rdf:resource="http://purl.org/dc/dcmitype/StillImage" />
        <dc:title></dc:title>
      </cc:Work>
    </rdf:RDF>
  </metadata>
  <g
     inkscape:label="Layer 1"
     inkscape:groupmode="layer"
     id="layer1"
     transform="translate(-41.62144,310.6311)">
    <polygon
       transform="matrix(0.66015625,0,0,0.66015625,-44.472018,-510.22929)"
       style="fill:#ffffff;stroke:#ffff90;stroke-width:0.90109998;stroke-miterlimit:10;stroke-opacity:1"
       points="1048.2,672.9 948.1,725.5 967.2,614.1 886.3,535.2 998.1,518.9 1048.2,417.6 1098.2,518.9 1210,535.2 1129.1,614.1 1148.2,725.5 "
       stroke-miterlimit="10"
       id="polygon372" />
    <polygon
       transform="matrix(0.66015625,0,0,0.66015625,169.45643,-547.53508)"
       style="fill:#ffffff;stroke:#ffff90;stroke-width:0.90109998;stroke-miterlimit:10;stroke-opacity:1"
       points="1085,869.8 1093.7,920.5 1048.2,896.5 1002.6,920.5 1011.3,869.8 974.5,833.8 1025.4,826.4 1048.2,780.3 1070.9,826.4 1121.8,833.8 "
       stroke-miterlimit="10"
       id="polygon374" />
    <polygon
       transform="matrix(0.66015625,0,0,0.66015625,350.88717,-392.55305)"
       style="fill:#ffffff;stroke:#ffff90;stroke-width:0.90109998;stroke-miterlimit:10;stroke-opacity:1"
       points="1300.2,486.1 1314.9,400.9 1252.9,340.5 1338.5,328.1 1376.8,250.5 1415.1,328.1 1500.7,340.5 1438.8,400.9 1453.4,486.1 1376.8,445.9 "
       stroke-miterlimit="10"
       id="polygon378" />
    <polygon
       transform="matrix(0.66015625,0,0,0.66015625,-802.21051,-720.31181)"
       style="fill:#ffffff;stroke:#ffff90;stroke-width:0.90109998;stroke-miterlimit:10;stroke-opacity:1"
       points="1349.7,732.8 1306.1,755.8 1314.5,707.2 1279.2,672.9 1327.9,665.8 1349.7,621.6 1371.5,665.8 1420.2,672.9 1385,707.2 1393.3,755.8 "
       stroke-miterlimit="10"
       id="polygon380" />
    <polygon
       transform="matrix(0.66015625,0,0,0.66015625,192.04126,-964.16213)"
       style="fill:#ffffff;stroke:#ffff90;stroke-width:0.90109998;stroke-miterlimit:10;stroke-opacity:1"
       points="1008.5,1152.1 981.1,1178.8 987.6,1216.4 953.8,1198.7 920,1216.4 926.4,1178.8 899.1,1152.1 936.9,1146.6 953.8,1112.4 970.7,1146.6 "
       stroke-miterlimit="10"
       id="polygon382" />
    <polygon
       transform="matrix(0.66015625,0,0,0.66015625,-258.31566,-632.88103)"
       style="fill:#ffffff;stroke:#ffff90;stroke-width:0.79149997;stroke-miterlimit:10;stroke-opacity:1"
       points="941.8,897.7 916.6,922.3 922.5,957.1 891.3,940.7 860,957.1 866,922.3 840.7,897.7 875.7,892.6 891.3,861 906.9,892.6 "
       stroke-miterlimit="10"
       id="polygon384" />
    <polygon
       transform="matrix(0.66015625,0,0,0.66015625,-202.87372,-341.64236)"
       style="fill:#ffffff;stroke:#ffff90;stroke-width:0.90109998;stroke-miterlimit:10;stroke-opacity:1"
       points="922.4,411.5 928.4,376.6 903,351.8 938.1,346.7 953.8,314.9 969.5,346.7 1004.6,351.8 979.2,376.6 985.2,411.5 953.8,395 "
       stroke-miterlimit="10"
       id="polygon386" />
    <polygon
       transform="matrix(0.66015625,0,0,0.66015625,240.64838,-240.53302)"
       style="fill:#ffffff;stroke:#ffff90;stroke-width:0.90109998;stroke-miterlimit:10;stroke-opacity:1"
       points="1188.2,228.9 1155,261.3 1162.9,307 1121.8,285.4 1080.8,307 1088.7,261.3 1055.5,228.9 1101.3,222.2 1121.8,180.7 1142.4,222.2 "
       stroke-miterlimit="10"
       id="polygon388" />
    <polygon
       transform="matrix(0.66015625,0,0,0.66015625,718.21511,-534.54626)"
       style="fill:#ffff90;fill-opacity:1;stroke:#52d0dd;stroke-width:0.90109998;stroke-miterlimit:10;stroke-opacity:0.91326527"
       points="1186.2,399.2 1216.1,403.5 1194.4,424.6 1199.5,454.4 1172.8,440.3 1146,454.4 1151.1,424.6 1129.5,403.5 1159.4,399.2 1172.8,372 "
       stroke-miterlimit="10"
       id="polygon390" />
    <polygon
       transform="matrix(0.66015625,0,0,0.66015625,-515.3691,-260.09998)"
       style="fill:#ffffff;stroke:#ffff90;stroke-width:0.90109998;stroke-miterlimit:10;stroke-opacity:1"
       points="1276.8,74.8 1330.3,82.6 1291.6,120.3 1300.7,173.5 1252.9,148.4 1205.1,173.5 1214.3,120.3 1175.6,82.6 1229,74.8 1252.9,26.4 "
       stroke-miterlimit="10"
       id="polygon392" />
    <polygon
       transform="matrix(0.66015625,0,0,0.66015625,740.84902,-819.35643)"
       style="fill:#ffffff;stroke:#ffff90;stroke-width:0.90109998;stroke-miterlimit:10;stroke-opacity:1"
       points="891.3,1484.2 862.5,1512.2 869.3,1551.8 833.8,1533.1 798.2,1551.8 805,1512.2 776.2,1484.2 816,1478.4 833.8,1442.4 851.5,1478.4 "
       stroke-miterlimit="10"
       id="polygon394" />
    <polygon
       transform="matrix(0.66015625,0,0,0.66015625,397.78223,-1056.1955)"
       style="fill:#ffffff;stroke:#ffff90;stroke-width:0.90109998;stroke-miterlimit:10;stroke-opacity:1"
       points="975.5,1406.6 981.8,1369.9 955.1,1343.9 992,1338.5 1008.5,1305.1 1025,1338.5 1061.8,1343.9 1035.1,1369.9 1041.4,1406.6 1008.5,1389.3 "
       stroke-miterlimit="10"
       id="polygon396" />
    <polygon
       transform="matrix(0.66015625,0,0,0.66015625,592.17274,-908.56169)"
       style="fill:#ffffff;stroke:#ffff90;stroke-width:0.90109998;stroke-miterlimit:10;stroke-opacity:1"
       points="770.7,1269.2 803.9,1264.4 818.8,1234.3 833.6,1264.4 866.8,1269.2 842.8,1292.6 848.4,1325.6 818.8,1310 789.1,1325.6 794.7,1292.6 "
       stroke-miterlimit="10"
       id="polygon398" />
    <polygon
       transform="matrix(0.66015625,0,0,0.66015625,-220.84917,-660.59977)"
       style="fill:#ffffff;stroke:#ffff90;stroke-width:0.90109998;stroke-miterlimit:10;stroke-opacity:1"
       points="1198.6,1047.9 1154.2,1091.2 1164.7,1152.4 1109.8,1123.5 1054.9,1152.4 1065.4,1091.2 1020.9,1047.9 1082.3,1039 1109.8,983.4 1137.2,1039 "
       stroke-miterlimit="10"
       id="polygon400" />
  </g>
</svg>
