<?xml version="1.0" encoding="UTF-8" standalone="no"?>
<!-- Created with Inkscape (http://www.inkscape.org/) -->

<svg
   xmlns:dc="http://purl.org/dc/elements/1.1/"
   xmlns:cc="http://creativecommons.org/ns#"
   xmlns:rdf="http://www.w3.org/1999/02/22-rdf-syntax-ns#"
   xmlns:svg="http://www.w3.org/2000/svg"
   xmlns="http://www.w3.org/2000/svg"
   xmlns:sodipodi="http://sodipodi.sourceforge.net/DTD/sodipodi-0.dtd"
   xmlns:inkscape="http://www.inkscape.org/namespaces/inkscape"
   width="49.97224mm"
   height="49.83271mm"
   viewBox="0 0 177.06699 176.57259"
   id="svg3435"
   version="1.1"
   inkscape:version="0.91 r13725"
   sodipodi:docname="tryb.svg">
  <defs
     id="defs3437" />
  <sodipodi:namedview
     id="base"
     pagecolor="#ffffff"
     bordercolor="#666666"
     borderopacity="1.0"
     inkscape:pageopacity="0.0"
     inkscape:pageshadow="2"
     inkscape:zoom="0.98994949"
     inkscape:cx="205.6191"
     inkscape:cy="-8.6938857"
     inkscape:document-units="px"
     inkscape:current-layer="layer1"
     showgrid="false"
     fit-margin-top="0"
     fit-margin-left="0"
     fit-margin-right="0"
     fit-margin-bottom="0"
     inkscape:window-width="1366"
     inkscape:window-height="717"
     inkscape:window-x="0"
     inkscape:window-y="0"
     inkscape:window-maximized="1" />
  <metadata
     id="metadata3440">
    <rdf:RDF>
      <cc:Work
         rdf:about="">
        <dc:format>image/svg+xml</dc:format>
        <dc:type
           rdf:resource="http://purl.org/dc/dcmitype/StillImage" />
        <dc:title></dc:title>
      </cc:Work>
    </rdf:RDF>
  </metadata>
  <g
     inkscape:label="Layer 1"
     inkscape:groupmode="layer"
     id="layer1"
     transform="translate(-2.8950743,-4.075905)">
    <path
       inkscape:connector-curvature="0"
       d="m 31.629054,26.0667 7.519,20.671 c -0.016,0.017 -0.027,0.039 -0.043,0.057 l 0.057,0.172 c -3.162,3.446 -6.006,7.249 -8.463,11.393 L 8.0560543,57.7447 c -0.449,1.018 -0.90903,2.034 -1.316,3.059 -0.55402,1.398 -1.066,2.793 -1.543,4.203 -0.478,1.41 -0.92902,2.84 -1.33,4.26 -0.35898,1.273 -0.67297,2.539 -0.97198,3.817 l 18.5269997,12.394 c -0.023,0.204 -0.008,0.412 -0.029,0.615 l 0.129,0.086 c -0.21301,2.161 -0.284,4.322 -0.28601,6.475 l 40.684,0 c 0.009,-1.297 0.11502,-2.597 0.30102,-3.874 0.185,-1.276 0.457,-2.536 0.81497,-3.774 0.35602,-1.237 0.79202,-2.45 1.315,-3.63 0.52301,-1.181 1.132,-2.325 1.815,-3.431 0.68301,-1.106 1.436,-2.175 2.273,-3.188 0.83701,-1.014 1.759,-1.97 2.745,-2.874 0.98502,-0.903 2.031,-1.754 3.159,-2.53 1.128,-0.77499 2.338,-1.486 3.603,-2.115 0.90201,-0.45 1.805,-0.83699 2.73,-1.187 0.92401,-0.351 1.862,-0.662 2.802,-0.91499 0.94,-0.25301 1.882,-0.45601 2.831,-0.615 0.44501,-0.074 0.897,-0.103 1.343,-0.157 0.15298,-0.02 0.30499,-0.04 0.457,-0.057 0.353,-0.037 0.70599,-0.10399 1.059,-0.129 0.34399,-0.024 0.685,-0.002 1.029,-0.014 0.39002,-0.017 0.78,-0.027 1.172,-0.029 0.21402,0.001 0.42902,-0.02 0.643,-0.014 0.15799,0.004 0.315,0.022 0.47202,0.029 0.78598,0.026 1.572,0.097 2.359,0.185 3.375,0.382 6.744996,1.307 9.948996,2.903 10.118,5.036 15.931,15.033 15.997,25.416 l 40.727,0 c 0,-2.161 -0.099,-4.335 -0.314,-6.504 l 18.755,-12.551 c -0.005,-0.024 -0.023,-0.047 -0.028,-0.072 -0.32599,-1.428 -0.686,-2.85401 -1.087,-4.274 -0.40097,-1.42 -0.83698,-2.83601 -1.315,-4.24601 -0.47803,-1.41 -0.98901,-2.805 -1.544,-4.203 -0.40201,-1.014 -0.84201,-2.02599 -1.287,-3.02999 l -22.472,0.615 c -0.14999,-0.25401 -0.332,-0.492 -0.48599,-0.74399 l -0.143,0 c -1.101,-1.80801 -2.272,-3.556 -3.516,-5.232 -1.245,-1.675 -2.556,-3.28 -3.932,-4.817 l 7.634,-20.957 c -0.66302,-0.579 -1.322,-1.158 -2.001,-1.716 -1.129,-0.927 -2.276,-1.833 -3.445,-2.702 -1.17,-0.86899 -2.367,-1.706 -3.574,-2.516 -1.207,-0.81 -2.431,-1.594 -3.674,-2.344 -0.35602,-0.215 -0.711,-0.424 -1.072,-0.629 l -17.841,13.423 c -0.25998,-0.11399 -0.526,-0.18899 -0.78598,-0.3 l -0.043,0.029 c -1.97,-0.838 -3.981,-1.573 -6.019,-2.23 -2.037,-0.65799 -4.097,-1.226 -6.189,-1.702 l -0.029,-0.071 c -0.01,-0.002 -0.018,-0.012 -0.028,-0.014 l -6.419,-21.3 c -0.902976,-0.094 -1.794996,-0.20601 -2.701996,-0.27201 -1.457,-0.10699 -2.925,-0.162 -4.388,-0.19999 -0.97998,-0.026 -1.962,-0.018 -2.946,-0.014 -0.491,0.005 -0.98102,-0.013 -1.472,0 -1.464,0.038 -2.917,0.10701 -4.374,0.214 -0.46399,0.034 -0.92499,0.10201 -1.387,0.14301 l -6.404,21.214 c -4.647,0.959 -9.182,2.37 -13.538,4.217 l -18.012,-13.537 c -0.60199,0.34399 -1.207,0.66999 -1.801,1.029 -1.243,0.75 -2.467,1.534 -3.674,2.344 -1.207,0.80999 -2.405,1.647 -3.574,2.516 -1.169,0.869 -2.316,1.775 -3.445,2.702 -0.449,0.36899 -0.875,0.765 -1.315,1.144 l 0,-10e-6 z m 83.155996,17.969 c 0.62198,0.043 1.254,0.207 1.844,0.5 2.36,1.176 3.304,4.013 2.101,6.319 -1.203,2.306 -4.101,3.219 -6.461,2.044 -2.361,-1.175 -3.304,-3.998 -2.102,-6.304 0.90201,-1.73 2.751,-2.688 4.618,-2.559 z m -68.102996,21.629 c 0.62198,0.043 1.254,0.207 1.844,0.5 2.36,1.175 3.304,3.998 2.101,6.304 -1.203,2.307 -4.101,3.22 -6.461,2.045 -2.361,-1.175 -3.305,-3.998 -2.102,-6.304 0.90201,-1.73 2.752,-2.674 4.618,-2.545 z"
       id="path60"
       style="fill:#a0892c" />
    <path
       inkscape:connector-curvature="0"
       d="m 151.22905,158.6577 -7.52,-20.671 c 0.016,-0.018 0.027,-0.04 0.043,-0.057 l -0.057,-0.172 c 3.162,-3.446 6.007,-7.249 8.463,-11.393 l 22.643,0.614 c 0.45001,-1.017 0.909,-2.033 1.316,-3.058 0.55399,-1.398 1.066,-2.793 1.544,-4.204 0.47699,-1.409 0.92798,-2.839 1.329,-4.259 0.35901,-1.273 0.67401,-2.539 0.97202,-3.817 l -18.527,-12.395 c 0.023,-0.20299 0.008,-0.411 0.029,-0.614 l -0.129,-0.086 c 0.21301,-2.161 0.285,-4.322 0.28601,-6.476 l -40.684,0 c -0.009,1.298 -0.11502,2.598 -0.30002,3.874 -0.186,1.277 -0.45801,2.537 -0.815,3.774 -0.357,1.238 -0.79199,2.451 -1.315,3.631 -0.52298,1.181 -1.133,2.325 -1.816,3.431 -0.68301,1.106 -1.436,2.175 -2.273,3.188 -0.83701,1.014 -1.759,1.97 -2.745,2.873 -0.98502,0.90401 -2.031,1.755 -3.159,2.531 -1.128,0.77499 -2.338,1.486 -3.602,2.115 -0.90298,0.45 -1.806,0.83699 -2.731,1.187 -0.92401,0.34999 -1.862,0.661 -2.801996,0.91499 -0.94,0.25301 -1.881,0.45601 -2.83,0.615 -0.44601,0.074 -0.897,0.103 -1.344,0.157 -0.15298,0.019 -0.30399,0.04 -0.457,0.057 -0.35199,0.037 -0.70599,0.10399 -1.058,0.129 -0.34399,0.024 -0.686,0.002 -1.029,0.014 -0.39102,0.017 -0.78101,0.027 -1.173,0.028 -0.21402,-9.9e-4 -0.42902,0.02 -0.643,0.015 -0.15701,-0.004 -0.314,-0.022 -0.47202,-0.029 -0.78598,-0.026 -1.572,-0.097 -2.358,-0.186 -3.376,-0.381 -6.746,-1.307 -9.95,-2.902 -10.117,-5.036 -15.931,-15.033 -15.996,-25.417 l -40.728,0 c 0,2.162 0.10001,4.336 0.314,6.505 l -18.7549997,12.551 c 0.005,0.024 0.023,0.047 0.029,0.071 0.32501,1.429 0.685,2.854 1.086,4.275 0.401,1.42 0.83801,2.836 1.315,4.245 0.478,1.411 0.98999,2.806 1.544,4.204 0.40302,1.014 0.84201,2.026 1.287,3.03 l 22.4719997,-0.615 c 0.14999,0.254 0.332,0.49199 0.48599,0.74399 l 0.143,0 c 1.101,1.808 2.272,3.556 3.517,5.232 1.244,1.675 2.555,3.279 3.931,4.817 l -7.634,20.957 c 0.66302,0.57898 1.323,1.158 2.002,1.716 1.128,0.927 2.275,1.833 3.445,2.701 1.169,0.86899 2.366,1.707 3.573,2.516 1.208,0.81 2.432,1.595 3.674,2.345 0.35602,0.215 0.71201,0.42401 1.073,0.629 l 17.84,-13.423 c 0.25998,0.11398 0.526,0.189 0.78598,0.29999 l 0.043,-0.029 c 1.97,0.83798 3.982,1.573 6.019,2.23 2.037,0.65802 4.098,1.226 6.19,1.701 l 0.028,0.072 c 0.01,0.002 0.018,0.012 0.029,0.014 l 6.418,21.3 c 0.90298,0.094 1.796,0.20599 2.702,0.272 1.457,0.107 2.925,0.16199 4.389,0.20001 0.979,0.025 1.962,0.018 2.945,0.014 0.492,-0.005 0.98102,0.013 1.472,0 1.464,-0.038 2.918,-0.107 4.375,-0.21399 0.46298,-0.034 0.92398,-0.10199 1.386,-0.143 l 6.404996,-21.215 c 4.646,-0.95801 9.181,-2.369 13.537,-4.216 l 18.012,13.537 c 0.60199,-0.34402 1.207,-0.67001 1.801,-1.029 1.243,-0.75 2.467,-1.535 3.674,-2.345 1.208,-0.80899 2.405,-1.647 3.574,-2.516 1.17,-0.86801 2.317,-1.774 3.445,-2.701 0.449,-0.36902 0.875,-0.76502 1.316,-1.144 z m -83.155996,-17.969 c -0.62201,-0.043 -1.254,-0.207 -1.844,-0.50101 -2.361,-1.175 -3.305,-4.012 -2.102,-6.318 1.203,-2.306 4.101,-3.219 6.462,-2.044 2.36,1.175 3.304,3.998 2.101,6.304 -0.90201,1.73 -2.751,2.688 -4.617,2.559 z m 68.102996,-21.629 c -0.62201,-0.043 -1.254,-0.207 -1.844,-0.5 -2.361,-1.176 -3.305,-3.998 -2.102,-6.304 1.203,-2.307 4.101,-3.22 6.462,-2.045 2.36,1.175 3.304,3.998 2.101,6.304 -0.90201,1.73 -2.751,2.674 -4.617,2.545 z"
       id="path62"
       style="fill:#a0892c" />
  </g>
</svg>
