<?xml version="1.0" encoding="UTF-8" standalone="no"?>
<svg
   xmlns:dc="http://purl.org/dc/elements/1.1/"
   xmlns:cc="http://creativecommons.org/ns#"
   xmlns:rdf="http://www.w3.org/1999/02/22-rdf-syntax-ns#"
   xmlns:svg="http://www.w3.org/2000/svg"
   xmlns="http://www.w3.org/2000/svg"
   xmlns:sodipodi="http://sodipodi.sourceforge.net/DTD/sodipodi-0.dtd"
   xmlns:inkscape="http://www.inkscape.org/namespaces/inkscape"
   enable-background="new 0 0 1537 2619"
   version="1.1"
   viewBox="0 0 125.22688 222.21866"
   xml:space="preserve"
   id="svg2"
   inkscape:version="0.91 r13725"
   sodipodi:docname="protogirl.svg"
   width="125.22688"
   height="222.21866"><metadata
     id="metadata406"><rdf:RDF><cc:Work
         rdf:about=""><dc:format>image/svg+xml</dc:format><dc:type
           rdf:resource="http://purl.org/dc/dcmitype/StillImage" /><dc:title /></cc:Work></rdf:RDF></metadata><defs
     id="defs404" /><sodipodi:namedview
     pagecolor="#ffffff"
     bordercolor="#666666"
     borderopacity="1"
     objecttolerance="10"
     gridtolerance="10"
     guidetolerance="10"
     inkscape:pageopacity="0"
     inkscape:pageshadow="2"
     inkscape:window-width="1366"
     inkscape:window-height="717"
     id="namedview402"
     showgrid="false"
     inkscape:zoom="2.8411437"
     inkscape:cx="14.719111"
     inkscape:cy="143.68777"
     inkscape:window-x="0"
     inkscape:window-y="0"
     inkscape:window-maximized="1"
     inkscape:current-layer="svg2"
     fit-margin-top="0"
     fit-margin-left="0"
     fit-margin-right="0"
     fit-margin-bottom="0" /><path
     d="m 115.8238,77.393366 c -3.27228,0.651492 -27.081356,8.202879 -35.906113,6.899894 -8.824758,-1.302983 -14.392055,-5.567296 -14.392055,-5.567296 0,0 6.544534,-12.763324 6.544534,-18.31581 0,-5.567297 -1.465851,-7.22564 -4.900992,-10.794046 -3.198234,-3.316687 -7.255254,-10.720007 -6.381667,-14.791829 0.296132,1.332598 1.066079,2.561544 2.26542,3.420329 2.058119,1.480664 4.945419,1.006852 6.426083,-1.066077 1.184531,-1.658344 0.799558,-3.95337 -0.843984,-5.137901 -1.317786,-0.947625 -3.153809,-0.63669 -4.101434,0.681107 -0.755144,1.051266 -0.518238,2.53193 0.547841,3.287073 0.843983,0.607068 2.028515,0.414586 2.635581,-0.429397 0.473813,-0.666294 0.325746,-1.584306 -0.310934,-2.087731 0.236906,0.35536 0.236906,0.843974 -0.02957,1.214144 -0.429397,0.607067 -1.273372,0.740332 -1.880448,0.310934 -0.755134,-0.54784 -0.932814,-1.599117 -0.384973,-2.35425 0.681105,-0.947625 1.998902,-1.169729 2.946527,-0.488625 1.184531,0.843984 1.45105,2.502328 0.607067,3.686859 -1.066078,1.480664 -3.124197,1.821211 -4.60486,0.755134 -1.761995,-1.258561 -2.235807,-3.642433 -1.140117,-5.478457 1.465862,-2.132166 2.457903,-3.375924 2.457903,-3.375924 0,0 8.706304,0.310945 10.186969,-2.324637 0.429397,-0.769946 0.829171,-2.813262 0.37017,-4.901003 -0.56265,-2.546743 -0.488622,-5.641326 -0.488622,-5.641326 0.858785,-1.110503 0.533039,-2.635582 0.251718,-2.694808 -2.694808,-0.607077 -6.2336,-1.140116 -7.477358,-3.9385665 C 65.155515,1.3612621 60.432192,-0.0897886 56.52324,0.0878914 51.148434,0.1174594 47.165442,1.6129702 44.233728,3.8043538 42.619809,4.218939 32.255161,7.3135315 36.238143,16.967461 c -0.17768,0.236906 -0.35536,0.473812 -0.518229,0.710719 -0.04445,-0.562652 -0.37017,-1.110503 -0.903209,-1.391825 -1.051267,-0.562652 -2.369062,-0.162877 -2.931715,0.888399 -0.429388,0.799558 -0.414587,1.71757 -0.04445,2.472704 -0.37017,-0.162868 -0.769945,-0.251708 -1.184531,-0.251708 -2.028514,0 -3.686858,1.643532 -3.686858,3.686849 0,2.457902 1.924862,4.471606 4.353152,4.590058 -1.214144,0.296134 -2.25061,1.214145 -2.650384,2.487526 -0.755143,2.428289 0.607068,5.004644 3.035357,5.744976 1.599118,0.488624 3.242658,0.251718 4.575257,-0.518227 -1.302985,1.377013 -1.34741,3.538782 -0.05923,4.975031 1.702759,1.89525 4.604861,2.043316 6.500111,0.35536 0.236906,-0.207294 0.444198,-0.429399 0.63669,-0.666305 0.01478,0.207294 0.04445,0.429399 0.118453,0.636691 0.488615,1.377013 2.013703,2.087731 3.390716,1.599117 1.62873,-0.592266 2.517128,-2.324647 2.07293,-3.982991 0.518237,0.251717 1.080889,0.310944 1.613928,0.222104 -0.577464,1.362211 -1.406636,2.665196 -2.605969,3.568396 -0.488623,0.37017 -0.947625,0.769946 -1.347409,1.199342 -2.739224,2.828064 -3.894142,6.811055 -3.183423,10.675583 1.687957,9.29857 5.596911,33.137262 1.924863,36.542789 -4.575256,4.24951 -8.513823,8.513833 -9.49106,13.089071 -0.977239,4.57526 -3.59801,23.23162 -9.165307,31.40489 -5.567297,8.17326 -15.754265,20.92177 -21.4992417,23.20199 0,0 -11.8749259,5.92267 0.5626519,8.52863 12.4375788,2.60597 24.0311728,4.2199 29.9834428,0.94762 0,0 1.62873,4.59007 0.37017,5.84864 -6.870281,6.87028 -12.896588,30.96067 -14.347639,34.6031 -0.962426,2.38388 -3.316687,1.1105 -2.931715,5.59691 0.17768,2.02851 2.902101,2.08774 4.279125,3.36111 1.036464,0.96243 1.480664,2.57635 2.53193,3.50917 2.235807,1.9989 4.619671,1.43625 7.432934,1.24376 1.080889,-0.074 4.279123,0.31095 4.057019,-1.51028 -0.236907,-2.01371 -3.064969,-1.3474 -4.264313,-2.2654 -2.102542,-1.59912 -3.479555,-5.44885 -4.856578,-7.81792 0,0 20.418362,-33.31492 21.973055,-36.72045 1.510278,-3.3315 1.969288,-11.28266 1.969288,-11.28266 l 4.456794,-3.43515 c 0,0 4.456804,7.89194 3.153819,14.59936 -1.140115,5.819 -0.592265,22.31358 -0.858784,35.95051 -0.02957,1.83602 -1.34741,2.94651 -0.488625,5.52286 -1.25856,3.13902 -2.339449,6.85549 1.228957,7.19604 1.584306,0.14806 4.530831,-1.06608 6.129949,-1.05127 1.791599,0.0148 4.219888,0.82918 6.011496,1.06608 2.07293,0.28131 6.070723,-0.75514 2.206184,-3.27228 -1.317786,-0.85878 -1.317786,-0.85878 -3.050167,-1.34739 -1.850826,-0.51825 -3.923756,-2.4135 -5.744976,-4.08664 0,0 -0.725522,-1.71757 -0.16287,-4.75294 1.998892,-10.67558 7.862322,-34.48465 7.358896,-39.59295 -0.651492,-6.54452 1.584315,-24.93437 1.584315,-24.93437 0,0 29.746527,-18.93769 31.715827,-32.01196 1.96928,-13.089064 19.63361,-28.458362 19.63361,-28.458362 0,0 -6.02631,-6.914695 -9.29857,-6.248402 z M 51.740654,32.780963 c -0.05923,-0.02957 -0.133265,-0.074 -0.192491,-0.08879 0.07401,-0.05923 0.133264,-0.133265 0.207293,-0.192492 0,0.074 -0.01478,0.17768 -0.01478,0.28133 z m -6.085534,5.137899 c -0.310934,-0.074 -0.666294,-0.074 -0.99204,0.04445 0,0 -0.01478,0 -0.01478,0.01478 -0.118453,-0.02957 -0.222095,-0.05923 -0.340549,-0.118452 0.07402,-0.325746 0.118454,-0.651493 0.133256,-0.99204 0.340557,0.207292 0.769945,0.236906 1.140116,0.02957 -0.355359,0.207292 -0.814369,0.07401 -1.021663,-0.281331 -0.251709,-0.459002 -0.08879,-1.021653 0.355359,-1.273372 0.503426,-0.281321 1.110504,-0.162867 1.465862,0.266521 0.0888,0.355358 0.192482,0.710718 0.310935,1.066077 -0.04445,0.459011 -0.310935,0.888399 -0.740331,1.125305 -0.08879,0.04445 -0.192482,0.0888 -0.296134,0.118453 z M 31.825718,31.744497 c 0.01478,0.02957 0.02957,0.04445 0.04445,0.07401 0.281321,0.518237 0.72552,0.888399 1.214144,1.125305 -0.222104,0.074 -0.459011,0.103645 -0.695917,0.05923 -0.296133,-0.281321 -0.488614,-0.651492 -0.547842,-1.08088 -0.01478,-0.05923 -0.01478,-0.118453 -0.01478,-0.177679 z m 3.538792,0.681107 c -0.370171,0.207292 -0.784757,0.266518 -1.169729,0.222094 0.02957,-0.02957 0.07401,-0.04445 0.103645,-0.07401 0.592266,-0.222104 0.977238,-0.829171 0.903201,-1.480663 0.074,-0.414587 0.05922,-0.829173 -0.02957,-1.214145 0.162878,0.04445 0.310944,0.103646 0.444199,0.207293 0.133265,0.533039 0.251718,0.843974 0.251718,0.843974 0.05923,0.45901 -0.01478,0.90321 -0.207294,1.288183 -0.08879,0.074 -0.177679,0.148066 -0.296132,0.207293 z m -2.783649,-1.98409 c 0.162868,-0.0888 0.325746,-0.148066 0.518228,-0.17768 0.074,-0.01478 0.148067,-0.01478 0.222104,-0.01478 -0.04444,0.28133 0.01478,0.592265 0.162869,0.858785 0.133264,0.236906 0.340557,0.414586 0.592265,0.503426 -0.01478,0.118452 -0.02957,0.251717 -0.074,0.370171 -0.02957,0.08879 -0.05923,0.17768 -0.103646,0.266518 -0.08879,0.04444 -0.177679,0.074 -0.281322,0.08879 -0.05923,0.01478 -0.118453,0 -0.19249,0 -0.222096,-0.148065 -0.414586,-0.35536 -0.547842,-0.607076 -0.236906,-0.414586 -0.325746,-0.858786 -0.296132,-1.288174 z m 1.066079,-6.914716 c 0.547841,-0.310934 1.228945,-0.133255 1.569503,0.384972 -0.251717,0.488625 -0.621878,0.932824 -1.140116,1.25857 -0.296133,0.04445 -0.621879,-0.08879 -0.784747,-0.370171 -0.251717,-0.444199 -0.0888,-1.021653 0.35536,-1.273371 z m 0.222094,7.092394 c 0.133265,0.236907 0.192491,0.503427 0.207293,0.784748 -0.04444,-0.04445 -0.074,-0.08879 -0.103646,-0.133255 -0.118453,-0.222105 -0.148066,-0.444198 -0.103656,-0.651493 z m 0.962437,-1.613937 c -0.133265,-0.222095 -0.310945,-0.444199 -0.503426,-0.621879 0.251708,-0.103646 0.562653,-0.236906 0.918011,-0.399775 0.04445,0.399775 0.103646,0.769946 0.162869,1.110494 -0.192482,-0.05922 -0.384973,-0.08879 -0.577454,-0.08879 z m -2.058128,0.710728 c -0.01478,0 -0.01478,0.01478 -0.02957,0.01478 0,0 0,-0.01478 0.01478,-0.01478 l 0.01478,0 z m 3.005753,-8.750729 c -0.02957,0.444199 -0.02957,0.695908 -0.02957,0.695908 -0.02957,0.473812 -0.0888,1.006851 -0.251718,1.510276 -0.503426,-0.592265 -1.332597,-0.784746 -2.058118,-0.459001 0.01478,-0.133264 0.02957,-0.266519 0.02957,-0.399784 0,-0.103646 0,-0.222094 -0.01478,-0.325746 0.429396,-0.162868 1.140115,-0.459001 1.954476,-0.903199 0.133264,-0.02957 0.251718,-0.05923 0.37017,-0.118454 z m -2.70962,1.184531 c -0.07401,0.63668 -0.503426,1.16972 -1.095692,1.391825 0.162878,-0.577465 0.533039,-1.08089 1.095692,-1.391825 z m -0.429388,1.998892 c 0.01478,0.17768 0.07401,0.35536 0.162868,0.533038 0.251718,0.444201 0.740332,0.636691 1.214145,0.53304 -0.399775,0.236907 -0.888399,0.414585 -1.480664,0.518237 -0.133256,-0.118453 -0.251708,-0.266519 -0.35536,-0.444199 -0.133254,-0.236906 -0.222095,-0.488624 -0.266519,-0.740332 0.28133,-0.103656 0.518237,-0.236906 0.72553,-0.399784 z m 0.621879,8.869192 c 0.518227,0.192482 1.080879,0.222095 1.628731,0.08879 -0.296133,0.207292 -0.636691,0.340548 -1.006852,0.384972 -0.577464,0.07401 -1.125305,-0.118454 -1.510278,-0.488624 0.310935,0.05922 0.607067,0.074 0.888399,0.01478 z m 5.537683,-0.918012 c 0,0 0.35536,-1.154918 0.962427,-2.842884 0.162878,0.784756 0.384973,1.510287 0.607077,2.161779 -0.607077,0.133255 -1.169729,0.429388 -1.62873,0.829172 0.02957,-0.04445 0.04445,-0.103656 0.05922,-0.148067 z m 1.391824,4.279115 c -0.118453,-0.04444 -0.222104,-0.103646 -0.325745,-0.17768 0.118452,0.04444 0.222094,0.103656 0.325745,0.17768 z m -0.325745,-0.17768 c 0.118452,0.133265 0.266519,0.236906 0.459,0.28133 0.05922,0.05923 0.118454,0.103646 0.17768,0.17768 0.207293,0.222095 0.325747,0.503427 0.35536,0.769945 -0.222095,0.074 -0.459001,0.103646 -0.710719,0.074 -0.784748,-0.103645 -1.391824,-0.63668 -1.628731,-1.332597 0.4442,-0.162869 0.918012,-0.162869 1.34741,0.02957 z m 0.710719,-0.81436 c -0.162879,-0.17768 -0.325747,-0.325747 -0.518237,-0.459011 0.207292,-0.17768 0.488622,-0.266519 0.769945,-0.222095 0.695917,0.08879 1.184531,0.725521 1.110503,1.421438 -0.05922,0.518227 -0.370171,0.932813 -0.784758,1.169719 0.0888,-0.666294 -0.08879,-1.377013 -0.577453,-1.910051 z m 0.54784,-1.643542 c -0.695907,-0.08879 -1.332598,0.296132 -1.599117,0.903209 -0.26652,-0.103646 -0.533039,-0.177679 -0.81436,-0.207292 0.444199,-0.843984 1.36221,-1.377023 2.369062,-1.302984 0.118453,0.251708 0.222095,0.473812 0.325746,0.666293 -0.0888,-0.02957 -0.192491,-0.05923 -0.281331,-0.05923 z m 4.989843,0.755143 c -0.473813,-0.192491 -1.036465,-0.177679 -1.510277,0.08879 -0.148067,0.0888 -0.281331,0.192482 -0.384973,0.325746 -0.05923,-0.236907 -0.148066,-0.473813 -0.236907,-0.710719 0.103646,-0.08879 0.222095,-0.17768 0.355359,-0.251718 0,0 0.651493,-0.207293 1.539891,-0.636681 0.07402,0.399775 0.148067,0.799559 0.236907,1.184531 z M 42.027498,5.6403765 C 38.873679,8.8830358 37.304175,12.954857 36.519427,16.182705 36.341748,14.938947 35.645831,8.3647989 42.027498,5.6403765 Z M 32.195888,17.32282 c 0.384973,-0.710719 1.273372,-0.977237 1.984091,-0.607077 0.577454,0.310944 0.784747,1.021663 0.473812,1.584316 -0.251718,0.459 -0.81437,0.63668 -1.273371,0.384972 -0.370171,-0.19249 -0.503426,-0.651492 -0.310944,-1.021663 -0.296133,0.533039 -0.0888,1.214145 0.45901,1.495476 0.236907,0.133255 0.488615,0.177679 0.740332,0.162868 -0.222104,0.26652 -0.444199,0.503426 -0.666304,0.695917 -0.222094,-0.04444 -0.459001,-0.118453 -0.666293,-0.236906 -0.873597,-0.4442 -1.214145,-1.554703 -0.740333,-2.457903 z m -3.864537,5.167513 c 0,-1.451051 1.184531,-2.635582 2.635582,-2.635582 0.399784,0 0.784757,0.118454 1.110503,0.310944 0.162868,0.192482 0.355359,0.370162 0.577453,0.518228 l 0.01478,0.01478 c -0.07401,0.02957 -0.133264,0.04445 -0.192491,0.04445 -1.228946,0.148066 -1.791598,1.391823 -1.776796,2.694808 -0.384972,-0.236906 -0.651493,-0.666294 -0.651493,-1.154918 0,-0.459001 0.281331,-0.843973 0.681106,-1.006851 -0.814361,0.01478 -1.465852,0.681105 -1.465852,1.510277 0,0.947625 0.710718,1.747184 1.62873,1.865636 0.074,0.251718 0.17768,0.488624 0.296133,0.695917 0.08879,0.148067 0.17768,0.296134 0.296132,0.414587 -1.761994,-0.05922 -3.153819,-1.510278 -3.153819,-3.272273 z m 3.494367,12.274719 c -1.495466,-0.45901 -2.339449,-2.058128 -1.880439,-3.553593 0.222095,-0.710719 0.769945,-1.243758 1.421438,-1.465862 -0.01478,0.399783 0.04445,0.829171 0.148067,1.214144 -0.133265,0.325746 -0.17768,0.695917 -0.133265,1.066079 0.192491,1.480663 1.554702,2.53194 3.035366,2.324646 0.17768,-0.02957 0.370161,-0.05922 0.547841,-0.118452 -0.858786,0.651491 -2.013703,0.888397 -3.139008,0.533038 z m 5.730175,-0.473812 c -0.01478,0.08879 -0.02957,0.162868 -0.04445,0.251708 -0.118453,0.02957 -0.222095,0.074 -0.340549,0.133265 0.133256,-0.133265 0.266521,-0.251718 0.384974,-0.384973 z m 4.219888,5.656137 c -1.16972,1.051266 -2.961329,0.947625 -4.012595,-0.222105 -0.829173,-0.918012 -0.755145,-2.339449 0.148066,-3.183423 0.459001,0.755134 1.243758,1.317786 2.206185,1.43624 0.251717,0.02957 0.488624,0.02957 0.72553,-0.01478 -0.05922,0.281321 -0.207293,0.547841 -0.444199,0.755134 0.251708,-0.222095 0.444199,-0.488615 0.577453,-0.784747 0.562653,-0.133265 1.051277,-0.459011 1.391825,-0.918012 l 0.0888,0.177679 c 0.133265,0.236906 0.296134,0.4442 0.473813,0.621879 -0.118453,0.769946 -0.503426,1.539891 -1.154918,2.132157 z m 4.323538,1.776797 c -0.947625,0.340548 -1.998892,-0.148067 -2.339449,-1.095692 -0.266519,-0.755143 0.118453,-1.599117 0.873597,-1.865637 0.607067,-0.222104 1.273371,0.103646 1.495466,0.710719 0.17768,0.488615 -0.07402,1.021654 -0.562652,1.199333 -0.118454,0.04444 -0.251708,0.04444 -0.370162,0.02957 0.251708,0.103656 0.53304,0.133264 0.799558,0.02957 0.710719,-0.251708 1.066079,-1.036464 0.814361,-1.732372 -0.118452,-0.340557 -0.355359,-0.621879 -0.636681,-0.814369 0.310934,-0.192482 0.562653,-0.459002 0.740333,-0.755135 0.162868,0.473813 0.340548,0.932814 0.533039,1.406626 0.503425,1.140117 -0.162878,2.472715 -1.34741,2.887301 z m 2.754035,-3.938567 -0.01478,-0.01478 c 0.133255,-0.459001 0.429388,-1.45105 0.932815,-2.502318 0.04445,0.01478 0.08879,0.04445 0.133264,0.05923 0.459001,0.251708 0.607067,0.829172 0.355358,1.273372 -0.207292,0.355359 -0.666302,0.488614 -1.021661,0.281321 0.533039,0.296132 1.214143,0.118452 1.510276,-0.429388 0.370171,-0.666303 0.133265,-1.510277 -0.533039,-1.89525 -0.02957,-0.01478 -0.04445,-0.02957 -0.07402,-0.04445 0.103646,-0.192482 0.222096,-0.399774 0.35536,-0.592266 0.4442,0.251719 0.769945,0.636691 0.962427,1.066079 -0.148066,0.829171 -0.370162,1.761994 -0.695907,2.680007 -0.562653,0.414585 -1.288182,0.473813 -1.910062,0.118453 z"
     id="path4"
     style="fill:#ffffff;fill-opacity:1;stroke:#ffff90;stroke-width:0.1480664;stroke-opacity:1"
     inkscape:connector-curvature="0" /><path
     d="m 36.065601,35.215009 c -0.148066,0 -0.281332,0.02957 -0.399785,0.07401 l 0.04444,0 0.35536,-0.07401 z"
     id="path6"
     inkscape:connector-curvature="0" /><path
     d="m 66.35004,45.310213 0.251717,0.26652 c 0.01478,0 0.01478,0.01478 0.02957,0.02957 -0.074,-0.103646 -0.162878,-0.207292 -0.28133,-0.296133 z"
     id="path8"
     inkscape:connector-curvature="0" /><path
     d="m 47.390628,51.083688 -0.01478,0.148066 c 0.0888,0.26652 0.325746,0.4442 0.592266,0.488624 -0.26652,-0.118453 -0.473813,-0.340558 -0.577464,-0.63669 z"
     id="path10"
     inkscape:connector-curvature="0" /><g
     stroke-miterlimit="10"
     id="g12"
     style="stroke:#422c13;stroke-width:0.90109998;stroke-miterlimit:10"
     transform="matrix(0.1480664,0,0,0.1480664,-34.276844,-163.20349)"><path
       d="m 626.8,1188.6 c -3.4,1.1 -7.4,1.1 -12.2,-0.4 3,2.4 5.7,5.9 6.4,10.7 3.3,0.8 6.7,0.5 9.8,-0.5 0,-0.2 -0.1,-0.3 -0.1,-0.3 -0.7,-4.1 -2.1,-7.2 -3.9,-9.5 z"
       id="path14"
       inkscape:connector-curvature="0"
       style="fill:#ff82da" /><path
       d="m 604.8,1183.3 c -0.1,-0.1 0,-0.1 0,0 z"
       id="path16"
       inkscape:connector-curvature="0"
       style="fill:#dc6ba6" /><path
       d="m 621,1198.9 c -3.4,-0.8 -6.9,-2.8 -10.2,-6.4 1.4,3.6 2,7.9 0.2,12.3 2.5,2.3 5.4,3.7 8.6,4.5 l 0,-0.1 c 1.5,-4 1.9,-7.4 1.4,-10.3 z"
       id="path18"
       inkscape:connector-curvature="0"
       style="fill:#ff82da" /><path
       d="m 604.8,1183.3 c 0.6,0.6 4.1,4.2 6,9.2 3.3,3.6 6.8,5.6 10.2,6.4 -0.7,-4.8 -3.4,-8.3 -6.4,-10.7 -2.9,-1 -6.2,-2.6 -9.8,-4.9 z"
       id="path20"
       inkscape:connector-curvature="0"
       style="fill:#a3195b" /><path
       d="m 611.1,1204.8 c -2.6,-2.5 -4.6,-6 -5.6,-10.9 -0.5,3.9 -2.2,8.1 -6.1,11.2 1,3.2 2.9,5.9 5.2,8.2 l 0.2,-0.2 c 3.2,-2.7 5.2,-5.5 6.3,-8.3 z"
       id="path22"
       inkscape:connector-curvature="0"
       style="fill:#ff82da" /><path
       d="m 604.8,1183.5 0,-0.1 c 0,-0.1 -0.1,-0.1 -0.1,-0.2 0,0 0.1,0.1 0.1,0.3 z"
       id="path24"
       inkscape:connector-curvature="0"
       style="fill:#dc6ba6" /><path
       d="m 604.8,1183.4 c -0.1,-0.1 -0.1,-0.2 -0.1,-0.2 0.1,0.1 0.1,0.1 0.1,0.2 z"
       id="path26"
       inkscape:connector-curvature="0"
       style="fill:#dc6ba6" /><path
       d="m 604.8,1183.5 c 0.3,1.2 1.3,5.6 0.6,10.5 1,4.9 3,8.4 5.6,10.9 1.8,-4.5 1.2,-8.8 -0.2,-12.3 -2.1,-2.3 -4.1,-5.3 -6,-9.1 z"
       id="path28"
       inkscape:connector-curvature="0"
       style="fill:#a3195b" /><path
       d="m 604.8,1183.3 c 1.9,3.9 3.9,6.9 6,9.2 -1.9,-5 -5.4,-8.6 -6,-9.2 z"
       id="path30"
       inkscape:connector-curvature="0"
       style="fill:#dc6ba6" /><path
       d="m 599.3,1205.2 c -1,-3.4 -1,-7.4 0.5,-12 -2.4,3 -5.9,5.7 -10.7,6.4 -0.8,3.3 -0.5,6.6 0.5,9.7 l 0.2,0 c 4.1,-0.9 7.2,-2.3 9.5,-4.1 z"
       id="path32"
       inkscape:connector-curvature="0"
       style="fill:#ff82da" /><path
       d="m 604.8,1183.5 c 0,-0.2 -0.1,-0.3 -0.1,-0.3 0,0 -1.3,5.3 -5,9.9 -1.5,4.7 -1.5,8.7 -0.5,12 4,-3.1 5.6,-7.3 6.1,-11.2 -0.5,-2.9 -0.7,-6.3 -0.5,-10.4 z"
       id="path34"
       inkscape:connector-curvature="0"
       style="fill:#a3195b" /><path
       d="m 604.8,1183.5 c -0.2,4 0,7.5 0.6,10.5 0.7,-4.9 -0.3,-9.3 -0.6,-10.5 z"
       id="path36"
       inkscape:connector-curvature="0"
       style="fill:#dc6ba6" /><path
       d="m 589.1,1199.5 c 0.8,-3.4 2.8,-6.9 6.4,-10.2 -3.6,1.4 -7.9,2 -12.5,0.2 -2.3,2.5 -3.7,5.5 -4.4,8.6 0.1,0 0.2,0.1 0.2,0.1 3.9,1.4 7.3,1.7 10.3,1.3 z"
       id="path38"
       inkscape:connector-curvature="0"
       style="fill:#ff82da" /><path
       d="m 595.5,1189.3 c -3.6,3.3 -5.6,6.8 -6.4,10.2 4.8,-0.7 8.3,-3.4 10.7,-6.4 1,-3 2.6,-6.3 5,-9.9 -0.1,0 -3.8,4 -9.3,6.1 z"
       id="path40"
       inkscape:connector-curvature="0"
       style="fill:#a3195b" /><path
       d="m 599.8,1193.1 c 3.7,-4.6 5,-9.9 5,-9.9 -2.4,3.6 -4.1,6.9 -5,9.9 z"
       id="path42"
       inkscape:connector-curvature="0"
       style="fill:#ff5792" /><path
       d="m 583,1189.5 c 2.4,-2.6 5.9,-4.6 10.7,-5.6 -3.8,-0.6 -7.9,-2.2 -10.9,-6.1 -3.2,1 -5.9,2.9 -8.2,5.2 l 0.2,0.2 c 2.7,3.2 5.5,5.2 8.2,6.3 z"
       id="path44"
       inkscape:connector-curvature="0"
       style="fill:#ff82da" /><path
       d="m 593.7,1183.9 c -4.8,1 -8.2,3 -10.7,5.6 4.5,1.8 8.9,1.2 12.5,-0.2 2.3,-2.1 5.4,-4.2 9.3,-6.1 -0.1,0 -5.3,1.6 -11.1,0.7 z"
       id="path46"
       inkscape:connector-curvature="0"
       style="fill:#a3195b" /><path
       d="m 604.7,1183.2 c -3.9,1.9 -6.9,4 -9.3,6.1 5.6,-2.1 9.3,-6.1 9.3,-6.1 z"
       id="path48"
       inkscape:connector-curvature="0"
       style="fill:#ff5792" /><path
       d="m 582.8,1177.8 c 3.4,-1 7.4,-1 12,0.5 -3,-2.4 -5.7,-5.9 -6.4,-10.7 -3.3,-0.8 -6.6,-0.5 -9.7,0.5 l 0,0.2 c 0.8,4.1 2.3,7.2 4.1,9.5 z"
       id="path50"
       inkscape:connector-curvature="0"
       style="fill:#ff82da" /><path
       d="m 604.7,1183.2 c 0,0 -5.3,-1.3 -9.9,-5 -4.7,-1.5 -8.7,-1.5 -12,-0.5 3,3.8 7.1,5.5 10.9,6.1 3,-0.6 6.7,-0.8 11,-0.6 z"
       id="path52"
       inkscape:connector-curvature="0"
       style="fill:#a3195b" /><path
       d="m 604.7,1183.2 c -4.3,-0.3 -8,0 -11.1,0.7 5.9,0.9 11.1,-0.7 11.1,-0.7 z"
       id="path54"
       inkscape:connector-curvature="0"
       style="fill:#dc6ba6" /><path
       d="m 588.4,1167.5 c 3.4,0.8 6.9,2.8 10.2,6.4 -1.4,-3.6 -2,-7.9 -0.2,-12.5 -2.5,-2.3 -5.5,-3.7 -8.6,-4.4 0,0.1 -0.1,0.2 -0.1,0.2 -1.3,4 -1.7,7.4 -1.3,10.3 z"
       id="path56"
       inkscape:connector-curvature="0"
       style="fill:#ff82da" /><path
       d="m 598.6,1173.9 c -3.3,-3.6 -6.8,-5.6 -10.2,-6.4 0.7,4.8 3.4,8.3 6.4,10.7 3,1 6.3,2.6 9.9,5 0,0 -3.9,-3.8 -6.1,-9.3 z"
       id="path58"
       inkscape:connector-curvature="0"
       style="fill:#a3195b" /><path
       d="m 594.8,1178.2 c 4.6,3.7 9.9,5 9.9,5 -3.6,-2.4 -6.9,-4 -9.9,-5 z"
       id="path60"
       inkscape:connector-curvature="0"
       style="fill:#dc6ba6" /><path
       d="m 598.5,1161.5 c 2.6,2.4 4.6,5.9 5.6,10.7 0.6,-3.8 2.2,-7.9 6.1,-10.9 -1,-3.2 -2.9,-5.9 -5.2,-8.2 l -0.2,0.2 c -3.3,2.7 -5.2,5.4 -6.3,8.2 z"
       id="path62"
       inkscape:connector-curvature="0"
       style="fill:#ff82da" /><path
       d="m 604.1,1172.1 c -1,-4.8 -3,-8.2 -5.6,-10.7 -1.8,4.5 -1.2,8.9 0.2,12.5 2.1,2.3 4.2,5.4 6.1,9.3 -0.1,0 -1.6,-5.2 -0.7,-11.1 z"
       id="path64"
       inkscape:connector-curvature="0"
       style="fill:#a3195b" /><path
       d="m 604.7,1183.2 c -1.9,-3.9 -4,-6.9 -6.1,-9.3 2.2,5.5 6.1,9.3 6.1,9.3 z"
       id="path66"
       inkscape:connector-curvature="0"
       style="fill:#dc6ba6" /><path
       d="m 610.2,1161.2 c 1,3.4 1,7.4 -0.5,12 2.4,-3 5.9,-5.7 10.7,-6.4 0.8,-3.3 0.5,-6.6 -0.5,-9.7 l -0.2,0 c -4.1,0.9 -7.2,2.3 -9.5,4.1 z"
       id="path68"
       inkscape:connector-curvature="0"
       style="fill:#ff82da" /><path
       d="m 604.7,1183.2 c 0,0 1.3,-5.3 5,-9.9 1.5,-4.7 1.5,-8.7 0.5,-12 -3.8,3 -5.5,7.1 -6.1,10.9 0.6,3 0.9,6.7 0.6,11 z"
       id="path70"
       inkscape:connector-curvature="0"
       style="fill:#a3195b" /><path
       d="m 604.7,1183.2 c 0.3,-4.3 0,-8 -0.7,-11.1 -0.8,5.9 0.7,11.1 0.7,11.1 z"
       id="path72"
       inkscape:connector-curvature="0"
       style="fill:#dc6ba6" /><path
       d="m 626.5,1176.9 c -2.4,2.5 -5.7,4.5 -10.4,5.6 3.8,0.6 7.8,2.3 10.7,6.1 3.2,-1 5.8,-2.9 8,-5.2 l -0.2,-0.2 c -2.6,-3.2 -5.4,-5.2 -8.1,-6.3 z"
       id="path74"
       inkscape:connector-curvature="0"
       style="fill:#ff82da" /><path
       d="m 604.8,1183.2 c -0.1,0 0,0 0,0 z"
       id="path76"
       inkscape:connector-curvature="0"
       style="fill:#dc6ba6" /><path
       d="m 616.1,1182.5 c -3.1,0.7 -6.9,1 -11.3,0.7 0.7,0.2 5.6,1.5 9.8,4.9 4.7,1.5 8.8,1.5 12.2,0.4 -2.9,-3.7 -6.9,-5.4 -10.7,-6 z"
       id="path78"
       inkscape:connector-curvature="0"
       style="fill:#a3195b" /><path
       d="m 604.8,1183.3 c 0,-0.1 -0.1,-0.1 0,0 z"
       id="path80"
       inkscape:connector-curvature="0"
       style="fill:#dc6ba6" /><path
       d="m 604.8,1183.3 c 3.6,2.4 6.9,3.9 9.8,4.9 -4.2,-3.4 -9,-4.8 -9.8,-4.9 z"
       id="path82"
       inkscape:connector-curvature="0"
       style="fill:#dc6ba6" /><path
       d="m 620.4,1166.9 c -0.8,3.4 -2.8,6.9 -6.4,10.2 3.6,-1.4 7.9,-2 12.5,-0.2 2.3,-2.5 3.7,-5.5 4.4,-8.6 -0.1,0 -0.2,-0.1 -0.2,-0.1 -4,-1.4 -7.4,-1.7 -10.3,-1.3 z"
       id="path84"
       inkscape:connector-curvature="0"
       style="fill:#ff82da" /><path
       d="m 604.7,1183.2 c 0.1,0 0.1,0 0,0 0.1,0 0.1,0 0,0 0.1,0 0.1,0 0,0 z"
       id="path86"
       inkscape:connector-curvature="0"
       style="fill:#dc6ba6" /><path
       d="m 616.1,1182.5 c 4.7,-1 8,-3 10.4,-5.6 -4.5,-1.8 -8.9,-1.2 -12.5,0.2 -2.3,2.1 -5.3,4.1 -9,6 1,-0.3 5.8,-1.5 11.1,-0.6 z"
       id="path88"
       inkscape:connector-curvature="0"
       style="fill:#a3195b" /><path
       d="m 605,1183.1 c -0.1,0 -0.1,0.1 -0.2,0.1 l 0,0.1 c 4.4,0.3 8.1,0 11.3,-0.7 -5.3,-1 -10.1,0.2 -11.1,0.5 z"
       id="path90"
       inkscape:connector-curvature="0"
       style="fill:#dc6ba6" /><path
       d="m 614,1177.1 c 3.6,-3.3 5.6,-6.8 6.4,-10.2 -4.8,0.7 -8.3,3.4 -10.7,6.4 -1,3 -2.6,6.3 -5,9.9 0,0 3.8,-4 9.3,-6.1 z"
       id="path92"
       inkscape:connector-curvature="0"
       style="fill:#a3195b" /><path
       d="m 604.7,1183.2 c 0.1,0 0.1,0 0,0 0.1,-0.1 0.1,-0.1 0,0 0.1,-0.1 0.2,-0.1 0.3,-0.1 3.7,-1.9 6.7,-3.9 9,-6 -5.5,2.1 -9.3,6.1 -9.3,6.1 z"
       id="path94"
       inkscape:connector-curvature="0"
       style="fill:#dc6ba6" /><path
       d="m 604.8,1183.1 0.2,0 -0.2,0 z"
       id="path96"
       inkscape:connector-curvature="0"
       style="fill:#dc6ba6" /><path
       d="m 609.7,1173.3 c -3.7,4.6 -5,9.9 -5,9.9 2.4,-3.6 4,-6.9 5,-9.9 z"
       id="path98"
       inkscape:connector-curvature="0"
       style="fill:#dc6ba6" /><circle
       cx="604.70001"
       cy="1183.2"
       r="7.4000001"
       id="circle100"
       style="fill:#cdd95b" /></g><g
     stroke-miterlimit="10"
     id="g102"
     style="stroke:#422c13;stroke-miterlimit:10"
     transform="matrix(0.14806641,0,0,0.14806641,-34.862812,-161.98097)"><path
       d="m 651.3,1135.4 c -3.3,1 -7.1,1.1 -11.7,-0.4 2.9,2.3 5.5,5.7 6.1,10.3 3.2,0.7 6.4,0.4 9.4,-0.5 0,-0.2 -0.1,-0.3 -0.1,-0.3 -0.6,-3.9 -2,-6.9 -3.7,-9.1 z"
       id="path104"
       inkscape:connector-curvature="0"
       style="fill:#cdd95b;stroke-width:0.86510003" /><path
       d="m 630.2,1130.3 c 0,-0.1 -0.1,-0.1 0,0 -0.1,-0.1 -0.1,-0.1 0,0 z"
       id="path106"
       inkscape:connector-curvature="0"
       style="fill:#dc6ba6;stroke-width:0.86510003" /><path
       d="m 645.7,1145.3 c -3.3,-0.8 -6.6,-2.7 -9.8,-6.2 1.3,3.4 1.9,7.5 0.2,11.8 2.4,2.2 5.2,3.6 8.2,4.3 l 0,-0.1 c 1.5,-3.8 1.8,-7.1 1.4,-9.8 z"
       id="path108"
       inkscape:connector-curvature="0"
       style="fill:#cdd95b;stroke-width:0.86510003" /><path
       d="m 630.3,1130.3 c 0.6,0.6 3.9,4 5.8,8.8 3.1,3.5 6.4,5.4 9.7,6.1 -0.6,-4.6 -3.2,-7.9 -6.1,-10.2 -2.9,-1 -6,-2.5 -9.4,-4.7 z"
       id="path110"
       inkscape:connector-curvature="0"
       style="fill:#96862b;stroke-width:0.86059999" /><path
       d="m 636.2,1150.9 c -2.5,-2.4 -4.4,-5.7 -5.4,-10.4 -0.5,3.8 -2.1,7.8 -5.9,10.8 0.9,3.1 2.8,5.7 5,7.8 0.1,-0.1 0.2,-0.1 0.2,-0.1 3.1,-2.7 5,-5.4 6.1,-8.1 z"
       id="path112"
       inkscape:connector-curvature="0"
       style="fill:#cdd95b;stroke-width:0.86510003" /><path
       d="m 630.2,1130.5 0,-0.1 c 0,-0.1 -0.1,-0.1 -0.1,-0.2 0,0 0,0.1 0.1,0.3 z"
       id="path114"
       inkscape:connector-curvature="0"
       style="fill:#dc6ba6;stroke-width:0.86510003" /><path
       d="m 630.2,1130.4 c -0.1,-0.1 -0.1,-0.2 -0.1,-0.2 0,0 0,0.1 0.1,0.2 z"
       id="path116"
       inkscape:connector-curvature="0"
       style="fill:#dc6ba6;stroke-width:0.86510003" /><path
       d="m 630.3,1130.5 c 0.3,1.1 1.3,5.3 0.6,10 1,4.7 2.9,8 5.4,10.4 1.7,-4.3 1.1,-8.4 -0.2,-11.8 -2,-2.2 -3.9,-5.1 -5.8,-8.7 l 0,0.1 z"
       id="path118"
       inkscape:connector-curvature="0"
       style="fill:#96862b;stroke-width:0.86059999" /><path
       d="m 630.2,1130.3 c 1.8,3.7 3.8,6.6 5.8,8.8 -1.9,-4.8 -5.2,-8.3 -5.8,-8.8 z"
       id="path120"
       inkscape:connector-curvature="0"
       style="fill:#dc6ba6;stroke-width:0.86510003" /><path
       d="m 624.9,1151.3 c -1,-3.2 -1,-7.1 0.4,-11.6 -2.3,2.9 -5.7,5.5 -10.3,6.1 -0.7,3.2 -0.5,6.3 0.4,9.3 l 0.2,0 c 4.1,-0.7 7.1,-2.1 9.3,-3.8 z"
       id="path122"
       inkscape:connector-curvature="0"
       style="fill:#cdd95b;stroke-width:0.86510003" /><path
       d="m 630.3,1130.5 c 0,-0.2 -0.1,-0.3 -0.1,-0.3 0,0 -1.2,5.1 -4.7,9.5 -1.4,4.5 -1.4,8.3 -0.4,11.5 3.8,-2.9 5.3,-7 5.9,-10.7 -0.7,-2.8 -0.9,-6.1 -0.7,-10 z"
       id="path124"
       inkscape:connector-curvature="0"
       style="fill:#96862b;stroke-width:0.86059999" /><path
       d="m 630.2,1130.5 c -0.2,3.9 0,7.2 0.6,10 0.6,-4.7 -0.3,-8.9 -0.6,-10 z"
       id="path126"
       inkscape:connector-curvature="0"
       style="fill:#dc6ba6;stroke-width:0.86510003" /><path
       d="m 615,1145.8 c 0.8,-3.3 2.7,-6.6 6.2,-9.8 -3.5,1.3 -7.6,1.9 -12,0.2 -2.2,2.4 -3.5,5.2 -4.3,8.3 0.1,0 0.2,0.1 0.2,0.1 3.9,1.3 7.1,1.6 9.9,1.2 z"
       id="path128"
       inkscape:connector-curvature="0"
       style="fill:#cdd95b;stroke-width:0.86510003" /><path
       d="m 621.3,1136.1 c -3.5,3.1 -5.4,6.4 -6.1,9.7 4.6,-0.6 7.9,-3.2 10.2,-6.1 0.9,-2.9 2.5,-6 4.7,-9.5 0.1,0 -3.5,3.8 -8.8,5.9 z"
       id="path130"
       inkscape:connector-curvature="0"
       style="fill:#96862b;stroke-width:0.86059999" /><path
       d="m 625.3,1139.7 c 3.6,-4.4 4.8,-9.5 4.8,-9.5 -2.3,3.5 -3.8,6.6 -4.8,9.5 z"
       id="path132"
       inkscape:connector-curvature="0"
       style="fill:#ff5792;stroke-width:0.86510003" /><path
       d="m 609.2,1136.2 c 2.3,-2.5 5.6,-4.4 10.2,-5.4 -3.7,-0.6 -7.6,-2.2 -10.4,-5.9 -3.1,0.9 -5.7,2.8 -7.8,5 0.1,0.1 0.1,0.2 0.1,0.2 2.6,3.2 5.3,5.1 7.9,6.1 z"
       id="path134"
       inkscape:connector-curvature="0"
       style="fill:#cdd95b;stroke-width:0.86510003" /><path
       d="m 619.4,1130.8 c -4.6,1 -7.9,2.9 -10.2,5.4 4.3,1.8 8.5,1.2 12,-0.2 2.3,-2 5.2,-4 8.9,-5.9 0,0.1 -5.1,1.6 -10.7,0.7 z"
       id="path136"
       inkscape:connector-curvature="0"
       style="fill:#96862b;stroke-width:0.86510003" /><path
       d="m 630.1,1130.2 c -3.7,1.9 -6.6,3.8 -8.9,5.9 5.3,-2.1 8.9,-5.9 8.9,-5.9 z"
       id="path138"
       inkscape:connector-curvature="0"
       style="fill:#ff5792;stroke-width:0.86510003" /><path
       d="m 609,1125 c 3.2,-1 7.1,-1 11.6,0.4 -2.9,-2.3 -5.5,-5.7 -6.1,-10.3 -3.2,-0.7 -6.3,-0.5 -9.3,0.4 l 0,0.2 c 0.7,4.1 2.1,7.1 3.8,9.3 z"
       id="path140"
       inkscape:connector-curvature="0"
       style="fill:#cdd95b;stroke-width:0.86510003" /><path
       d="m 630.1,1130.2 c 0,0 -5.1,-1.2 -9.5,-4.8 -4.5,-1.4 -8.3,-1.4 -11.6,-0.4 2.9,3.7 6.8,5.3 10.4,5.9 3,-0.7 6.5,-1 10.7,-0.7 z"
       id="path142"
       inkscape:connector-curvature="0"
       style="fill:#96862b;stroke-width:0.86510003" /><path
       d="m 630.1,1130.2 c -4.2,-0.2 -7.7,0 -10.6,0.6 5.5,0.9 10.6,-0.6 10.6,-0.6 z"
       id="path144"
       inkscape:connector-curvature="0"
       style="fill:#dc6ba6;stroke-width:0.86510003" /><path
       d="m 614.4,1115.1 c 3.3,0.8 6.6,2.7 9.8,6.2 -1.3,-3.5 -1.9,-7.6 -0.2,-12 -2.4,-2.2 -5.2,-3.5 -8.3,-4.3 0,0.1 -0.1,0.2 -0.1,0.2 -1.2,3.9 -1.6,7.1 -1.2,9.9 z"
       id="path146"
       inkscape:connector-curvature="0"
       style="fill:#cdd95b;stroke-width:0.86510003" /><path
       d="m 624.2,1121.3 c -3.2,-3.5 -6.5,-5.4 -9.8,-6.2 0.6,4.6 3.2,8 6.1,10.3 2.9,0.9 6.1,2.5 9.5,4.8 0.1,0 -3.7,-3.6 -5.8,-8.9 z"
       id="path148"
       inkscape:connector-curvature="0"
       style="fill:#96862b;stroke-width:0.86510003" /><path
       d="m 620.6,1125.4 c 4.4,3.6 9.5,4.8 9.5,4.8 -3.5,-2.3 -6.7,-3.8 -9.5,-4.8 z"
       id="path150"
       inkscape:connector-curvature="0"
       style="fill:#dc6ba6;stroke-width:0.86510003" /><path
       d="m 624.1,1109.3 c 2.5,2.3 4.4,5.6 5.4,10.2 0.6,-3.7 2.2,-7.6 5.9,-10.4 -0.9,-3.1 -2.8,-5.7 -5,-7.8 -0.1,0.1 -0.2,0.1 -0.2,0.1 -3.2,2.6 -5.1,5.3 -6.1,7.9 z"
       id="path152"
       inkscape:connector-curvature="0"
       style="fill:#cdd95b;stroke-width:0.86510003" /><path
       d="m 629.5,1119.5 c -1,-4.6 -2.9,-7.9 -5.4,-10.2 -1.8,4.3 -1.2,8.5 0.2,12 2,2.3 4,5.2 5.9,8.9 -0.1,0 -1.6,-5.1 -0.7,-10.7 z"
       id="path154"
       inkscape:connector-curvature="0"
       style="fill:#96862b;stroke-width:0.86510003" /><path
       d="m 630.1,1130.2 c -1.9,-3.7 -3.8,-6.6 -5.9,-8.9 2.1,5.3 5.9,8.9 5.9,8.9 z"
       id="path156"
       inkscape:connector-curvature="0"
       style="fill:#dc6ba6;stroke-width:0.86510003" /><path
       d="m 635.3,1109.1 c 1,3.2 1,7.1 -0.4,11.6 2.3,-2.9 5.7,-5.5 10.3,-6.1 0.7,-3.2 0.5,-6.3 -0.4,-9.3 l -0.2,0 c -4.1,0.7 -7.1,2.1 -9.3,3.8 z"
       id="path158"
       inkscape:connector-curvature="0"
       style="fill:#cdd95b;stroke-width:0.86510003" /><path
       d="m 630.1,1130.2 c 0,0 1.2,-5.1 4.8,-9.5 1.4,-4.5 1.4,-8.3 0.4,-11.6 -3.7,2.9 -5.3,6.8 -5.9,10.4 0.7,3 0.9,6.5 0.7,10.7 z"
       id="path160"
       inkscape:connector-curvature="0"
       style="fill:#96862b;stroke-width:0.86510003" /><path
       d="m 630.1,1130.2 c 0.2,-4.2 0,-7.7 -0.6,-10.6 -0.9,5.5 0.6,10.6 0.6,10.6 z"
       id="path162"
       inkscape:connector-curvature="0"
       style="fill:#dc6ba6;stroke-width:0.86510003" /><path
       d="m 651,1124.2 c -2.3,2.4 -5.5,4.3 -10,5.3 3.6,0.6 7.5,2.2 10.3,5.9 3.1,-1 5.6,-2.8 7.7,-5 -0.1,-0.1 -0.1,-0.2 -0.1,-0.2 -2.7,-3.1 -5.3,-5 -7.9,-6 z"
       id="path164"
       inkscape:connector-curvature="0"
       style="fill:#cdd95b;stroke-width:0.86510003" /><path
       d="m 630.2,1130.2 c 0,0 -0.1,0 0,0 -0.1,0 -0.1,0 0,0 z"
       id="path166"
       inkscape:connector-curvature="0"
       style="fill:#dc6ba6;stroke-width:0.86510003" /><path
       d="m 641.1,1129.5 c -3,0.7 -6.5,0.9 -10.8,0.7 0.7,0.2 5.3,1.5 9.4,4.7 4.5,1.5 8.4,1.4 11.6,0.4 -2.8,-3.6 -6.6,-5.2 -10.2,-5.8 z"
       id="path168"
       inkscape:connector-curvature="0"
       style="fill:#96862b;stroke-width:0.86059999" /><path
       d="m 630.2,1130.2 c -0.1,0 -0.1,0 0,0 -0.1,0 0,0 0,0 z"
       id="path170"
       inkscape:connector-curvature="0"
       style="fill:#dc6ba6;stroke-width:0.86510003" /><path
       d="m 630.2,1130.2 c 3.4,2.3 6.6,3.8 9.4,4.7 -4,-3.2 -8.7,-4.5 -9.4,-4.7 z"
       id="path172"
       inkscape:connector-curvature="0"
       style="fill:#dc6ba6;stroke-width:0.86510003" /><path
       d="m 645.2,1114.5 c -0.8,3.3 -2.7,6.6 -6.2,9.8 3.5,-1.3 7.6,-1.9 12,-0.2 2.2,-2.4 3.5,-5.2 4.3,-8.3 -0.1,0 -0.2,-0.1 -0.2,-0.1 -3.9,-1.2 -7.2,-1.6 -9.9,-1.2 z"
       id="path174"
       inkscape:connector-curvature="0"
       style="fill:#cdd95b;stroke-width:0.86510003" /><path
       d="m 630.1,1130.2 c 0,0 0.1,0 0,0 0.1,0 0.1,0 0,0 0.1,0 0,0 0,0 z"
       id="path176"
       inkscape:connector-curvature="0"
       style="fill:#dc6ba6;stroke-width:0.86510003" /><path
       d="m 641.1,1129.5 c 4.4,-1 7.6,-2.9 9.9,-5.3 -4.3,-1.8 -8.5,-1.2 -11.9,0.2 -2.2,2 -5,3.9 -8.6,5.7 0.9,-0.3 5.5,-1.4 10.6,-0.6 z"
       id="path178"
       inkscape:connector-curvature="0"
       style="fill:#96862b;stroke-width:0.86059999" /><path
       d="m 630.4,1130.1 c -0.1,0 -0.1,0.1 -0.2,0.1 l 0,0.1 c 4.2,0.2 7.8,0 10.8,-0.7 -5.1,-0.9 -9.7,0.2 -10.6,0.5 z"
       id="path180"
       inkscape:connector-curvature="0"
       style="fill:#dc6ba6;stroke-width:0.86510003" /><path
       d="m 639.1,1124.4 c 3.5,-3.1 5.4,-6.4 6.1,-9.7 -4.6,0.6 -7.9,3.2 -10.2,6.1 -0.9,2.9 -2.5,6 -4.7,9.5 -0.1,-0.1 3.5,-3.9 8.8,-5.9 z"
       id="path182"
       inkscape:connector-curvature="0"
       style="fill:#96862b;stroke-width:0.86059999" /><path
       d="m 630.1,1130.2 c 0,0 0.1,0 0,0 0.1,-0.1 0.1,-0.1 0,0 0.1,-0.1 0.2,-0.1 0.3,-0.1 3.6,-1.8 6.4,-3.8 8.6,-5.7 -5.3,2 -8.9,5.8 -8.9,5.8 z"
       id="path184"
       inkscape:connector-curvature="0"
       style="fill:#dc6ba6;stroke-width:0.86510003" /><path
       d="m 630.2,1130.1 0.2,0 -0.2,0 z"
       id="path186"
       inkscape:connector-curvature="0"
       style="fill:#dc6ba6;stroke-width:0.86510003" /><path
       d="m 634.9,1120.7 c -3.6,4.4 -4.8,9.5 -4.8,9.5 2.3,-3.5 3.8,-6.7 4.8,-9.5 z"
       id="path188"
       inkscape:connector-curvature="0"
       style="fill:#dc6ba6;stroke-width:0.86510003" /><circle
       cx="630.09998"
       cy="1130.2"
       r="7.0999999"
       id="circle190"
       style="fill:#a3195b;stroke-width:0.86510003" /></g><g
     stroke-miterlimit="10"
     id="g192"
     style="stroke:#422c13;stroke-width:0.90109998;stroke-miterlimit:10"
     transform="matrix(0.14806641,0,0,0.14806641,-31.935598,-164.85158)"><path
       d="m 525.4,1260.1 c -3.4,1.1 -7.4,1.1 -12.2,-0.4 3,2.4 5.7,5.9 6.4,10.7 3.3,0.8 6.7,0.5 9.8,-0.5 0,-0.2 -0.1,-0.3 -0.1,-0.3 -0.7,-4.1 -2.1,-7.2 -3.9,-9.5 z"
       id="path194"
       inkscape:connector-curvature="0"
       style="fill:#ff82da" /><path
       d="m 503.4,1254.8 c -0.1,-0.1 -0.1,-0.1 0,0 -0.1,-0.1 -0.1,-0.1 0,0 z"
       id="path196"
       inkscape:connector-curvature="0"
       style="fill:#dc6ba6" /><path
       d="m 519.6,1270.4 c -3.4,-0.8 -6.9,-2.8 -10.2,-6.4 1.4,3.6 2,7.9 0.2,12.3 2.5,2.3 5.4,3.7 8.6,4.5 l 0,-0.1 c 1.5,-4 1.8,-7.4 1.4,-10.3 z"
       id="path198"
       inkscape:connector-curvature="0"
       style="fill:#ff82da" /><path
       d="m 503.4,1254.8 c 0.6,0.6 4.1,4.2 6,9.2 3.3,3.6 6.8,5.6 10.2,6.4 -0.7,-4.8 -3.4,-8.3 -6.4,-10.7 -3,-1 -6.2,-2.6 -9.8,-4.9 z"
       id="path200"
       inkscape:connector-curvature="0"
       style="fill:#a3195b" /><path
       d="m 509.6,1276.3 c -2.6,-2.5 -4.6,-6 -5.6,-10.9 -0.5,3.9 -2.2,8.1 -6.1,11.2 1,3.2 2.9,5.9 5.2,8.2 l 0.2,-0.2 c 3.2,-2.7 5.2,-5.6 6.3,-8.3 z"
       id="path202"
       inkscape:connector-curvature="0"
       style="fill:#ff82da" /><path
       d="m 503.4,1255 0,-0.1 c 0,-0.1 -0.1,-0.1 -0.1,-0.2 0,0 0,0.1 0.1,0.3 z"
       id="path204"
       inkscape:connector-curvature="0"
       style="fill:#dc6ba6" /><path
       d="m 503.4,1254.8 c -0.1,-0.1 -0.1,-0.2 -0.1,-0.2 0,0.1 0,0.2 0.1,0.2 z"
       id="path206"
       inkscape:connector-curvature="0"
       style="fill:#dc6ba6" /><path
       d="m 503.4,1255 c 0.3,1.2 1.3,5.6 0.6,10.5 1,4.9 3,8.4 5.6,10.9 1.8,-4.5 1.2,-8.8 -0.2,-12.3 -2.1,-2.3 -4.1,-5.3 -6,-9.1 z"
       id="path208"
       inkscape:connector-curvature="0"
       style="fill:#a3195b" /><path
       d="m 503.4,1254.8 c 1.9,3.9 3.9,6.9 6,9.2 -1.9,-5.1 -5.4,-8.6 -6,-9.2 z"
       id="path210"
       inkscape:connector-curvature="0"
       style="fill:#dc6ba6" /><path
       d="m 497.9,1276.6 c -1,-3.4 -1,-7.4 0.5,-12 -2.4,3 -5.9,5.7 -10.7,6.4 -0.8,3.3 -0.5,6.6 0.5,9.7 l 0.2,0 c 4,-0.8 7.1,-2.3 9.5,-4.1 z"
       id="path212"
       inkscape:connector-curvature="0"
       style="fill:#ff82da" /><path
       d="m 503.4,1255 c 0,-0.2 -0.1,-0.3 -0.1,-0.3 0,0 -1.3,5.3 -5,9.9 -1.5,4.7 -1.5,8.7 -0.5,12 4,-3.1 5.6,-7.3 6.1,-11.2 -0.5,-2.9 -0.8,-6.4 -0.5,-10.4 z"
       id="path214"
       inkscape:connector-curvature="0"
       style="fill:#a3195b" /><path
       d="m 503.4,1255 c -0.2,4 0,7.5 0.6,10.5 0.7,-5 -0.3,-9.4 -0.6,-10.5 z"
       id="path216"
       inkscape:connector-curvature="0"
       style="fill:#dc6ba6" /><path
       d="m 487.6,1271 c 0.8,-3.4 2.8,-6.9 6.4,-10.2 -3.6,1.4 -7.9,2 -12.5,0.2 -2.3,2.5 -3.7,5.5 -4.4,8.6 0.1,0 0.2,0.1 0.2,0.1 4,1.4 7.4,1.7 10.3,1.3 z"
       id="path218"
       inkscape:connector-curvature="0"
       style="fill:#ff82da" /><path
       d="m 494,1260.8 c -3.6,3.3 -5.6,6.8 -6.4,10.2 4.8,-0.7 8.3,-3.4 10.7,-6.4 1,-3 2.6,-6.3 5,-9.9 0,0 -3.8,4 -9.3,6.1 z"
       id="path220"
       inkscape:connector-curvature="0"
       style="fill:#a3195b" /><path
       d="m 498.3,1264.6 c 3.7,-4.6 5,-9.9 5,-9.9 -2.4,3.6 -4,6.9 -5,9.9 z"
       id="path222"
       inkscape:connector-curvature="0"
       style="fill:#ff5792" /><path
       d="m 481.5,1261 c 2.4,-2.6 5.9,-4.6 10.7,-5.6 -3.8,-0.6 -7.9,-2.2 -10.9,-6.1 -3.2,1 -5.9,2.9 -8.2,5.2 l 0.2,0.2 c 2.7,3.2 5.5,5.1 8.2,6.3 z"
       id="path224"
       inkscape:connector-curvature="0"
       style="fill:#ff82da" /><path
       d="m 492.2,1255.3 c -4.8,1 -8.2,3 -10.7,5.6 4.5,1.8 8.9,1.2 12.5,-0.2 2.3,-2.1 5.4,-4.2 9.3,-6.1 0,0.1 -5.3,1.6 -11.1,0.7 z"
       id="path226"
       inkscape:connector-curvature="0"
       style="fill:#a3195b" /><path
       d="m 503.3,1254.7 c -3.9,1.9 -6.9,4 -9.3,6.1 5.5,-2.1 9.3,-6.1 9.3,-6.1 z"
       id="path228"
       inkscape:connector-curvature="0"
       style="fill:#ff5792" /><path
       d="m 481.3,1249.2 c 3.4,-1 7.4,-1 12,0.5 -3,-2.4 -5.7,-5.9 -6.4,-10.7 -3.3,-0.8 -6.6,-0.5 -9.7,0.5 l 0,0.2 c 0.9,4.1 2.3,7.2 4.1,9.5 z"
       id="path230"
       inkscape:connector-curvature="0"
       style="fill:#ff82da" /><path
       d="m 503.3,1254.7 c 0,0 -5.3,-1.3 -9.9,-5 -4.7,-1.5 -8.7,-1.5 -12,-0.5 3,3.8 7.1,5.5 10.9,6.1 3,-0.6 6.7,-0.9 11,-0.6 z"
       id="path232"
       inkscape:connector-curvature="0"
       style="fill:#a3195b" /><path
       d="m 503.3,1254.7 c -4.3,-0.3 -8,0 -11.1,0.7 5.8,0.8 11.1,-0.7 11.1,-0.7 z"
       id="path234"
       inkscape:connector-curvature="0"
       style="fill:#dc6ba6" /><path
       d="m 487,1239 c 3.4,0.8 6.9,2.8 10.2,6.4 -1.4,-3.6 -2,-7.9 -0.2,-12.5 -2.5,-2.3 -5.5,-3.7 -8.6,-4.4 0,0.1 -0.1,0.2 -0.1,0.2 -1.4,4 -1.7,7.4 -1.3,10.3 z"
       id="path236"
       inkscape:connector-curvature="0"
       style="fill:#ff82da" /><path
       d="m 497.2,1245.4 c -3.3,-3.6 -6.8,-5.6 -10.2,-6.4 0.7,4.8 3.4,8.3 6.4,10.7 3,1 6.3,2.6 9.9,5 0,0 -4,-3.8 -6.1,-9.3 z"
       id="path238"
       inkscape:connector-curvature="0"
       style="fill:#a3195b" /><path
       d="m 493.3,1249.7 c 4.6,3.7 9.9,5 9.9,5 -3.5,-2.4 -6.8,-4 -9.9,-5 z"
       id="path240"
       inkscape:connector-curvature="0"
       style="fill:#dc6ba6" /><path
       d="m 497,1232.9 c 2.6,2.4 4.6,5.9 5.6,10.7 0.6,-3.8 2.2,-7.9 6.1,-10.9 -1,-3.2 -2.9,-5.9 -5.2,-8.2 l -0.2,0.2 c -3.2,2.7 -5.2,5.5 -6.3,8.2 z"
       id="path242"
       inkscape:connector-curvature="0"
       style="fill:#ff82da" /><path
       d="m 502.6,1243.6 c -1,-4.8 -3,-8.2 -5.6,-10.7 -1.8,4.5 -1.2,8.9 0.2,12.5 2.1,2.3 4.2,5.4 6.1,9.3 0,0 -1.6,-5.3 -0.7,-11.1 z"
       id="path244"
       inkscape:connector-curvature="0"
       style="fill:#a3195b" /><path
       d="m 503.3,1254.7 c -1.9,-3.9 -4,-6.9 -6.1,-9.3 2.1,5.5 6.1,9.3 6.1,9.3 z"
       id="path246"
       inkscape:connector-curvature="0"
       style="fill:#dc6ba6" /><path
       d="m 508.7,1232.7 c 1,3.4 1,7.4 -0.5,12 2.4,-3 5.9,-5.7 10.7,-6.4 0.8,-3.3 0.5,-6.6 -0.5,-9.7 l -0.2,0 c -4.1,0.9 -7.2,2.3 -9.5,4.1 z"
       id="path248"
       inkscape:connector-curvature="0"
       style="fill:#ff82da" /><path
       d="m 503.3,1254.7 c 0,0 1.3,-5.3 5,-9.9 1.5,-4.7 1.5,-8.7 0.5,-12 -3.8,3 -5.5,7.1 -6.1,10.9 0.6,3 0.8,6.6 0.6,11 z"
       id="path250"
       inkscape:connector-curvature="0"
       style="fill:#a3195b" /><path
       d="m 503.3,1254.7 c 0.3,-4.3 0,-8 -0.7,-11.1 -0.9,5.8 0.7,11.1 0.7,11.1 z"
       id="path252"
       inkscape:connector-curvature="0"
       style="fill:#dc6ba6" /><path
       d="m 525,1248.4 c -2.4,2.5 -5.7,4.5 -10.4,5.6 3.8,0.6 7.8,2.3 10.7,6.1 3.2,-1 5.8,-2.9 8,-5.2 l -0.2,-0.2 c -2.6,-3.2 -5.4,-5.2 -8.1,-6.3 z"
       id="path254"
       inkscape:connector-curvature="0"
       style="fill:#ff82da" /><path
       d="m 503.4,1254.7 c -0.1,0 -0.1,0 0,0 -0.1,0 -0.1,0 0,0 z"
       id="path256"
       inkscape:connector-curvature="0"
       style="fill:#dc6ba6" /><path
       d="m 514.6,1253.9 c -3.1,0.7 -6.9,1 -11.3,0.7 0.7,0.2 5.6,1.5 9.8,4.9 4.7,1.5 8.8,1.5 12.2,0.4 -2.9,-3.7 -6.9,-5.3 -10.7,-6 z"
       id="path258"
       inkscape:connector-curvature="0"
       style="fill:#a3195b" /><path
       d="m 503.4,1254.7 c -0.1,0 -0.1,0 0,0 -0.1,0 -0.1,0 0,0 z"
       id="path260"
       inkscape:connector-curvature="0"
       style="fill:#dc6ba6" /><path
       d="m 503.4,1254.7 c 3.6,2.4 6.9,3.9 9.8,4.9 -4.2,-3.4 -9.1,-4.7 -9.8,-4.9 z"
       id="path262"
       inkscape:connector-curvature="0"
       style="fill:#dc6ba6" /><path
       d="m 519,1238.4 c -0.8,3.4 -2.8,6.9 -6.4,10.2 3.6,-1.4 7.9,-2 12.5,-0.2 2.3,-2.5 3.7,-5.5 4.4,-8.6 -0.1,0 -0.2,-0.1 -0.2,-0.1 -4,-1.4 -7.4,-1.7 -10.3,-1.3 z"
       id="path264"
       inkscape:connector-curvature="0"
       style="fill:#ff82da" /><path
       d="m 503.3,1254.7 c 0.1,0 0.1,-0.1 0,0 z"
       id="path266"
       inkscape:connector-curvature="0"
       style="fill:#dc6ba6" /><path
       d="m 514.6,1253.9 c 4.7,-1 8,-3 10.4,-5.6 -4.5,-1.8 -8.9,-1.2 -12.5,0.2 -2.3,2.1 -5.3,4.1 -9,6 1,-0.2 5.9,-1.4 11.1,-0.6 z"
       id="path268"
       inkscape:connector-curvature="0"
       style="fill:#a3195b" /><path
       d="m 503.6,1254.5 c -0.1,0 -0.1,0.1 -0.2,0.1 l 0,0.1 c 4.4,0.3 8.1,0 11.3,-0.7 -5.3,-0.9 -10.2,0.3 -11.1,0.5 z"
       id="path270"
       inkscape:connector-curvature="0"
       style="fill:#dc6ba6" /><path
       d="m 512.6,1248.6 c 3.6,-3.3 5.6,-6.8 6.4,-10.2 -4.8,0.7 -8.3,3.4 -10.7,6.4 -1,3 -2.6,6.3 -5,9.9 0,0 3.8,-4 9.3,-6.1 z"
       id="path272"
       inkscape:connector-curvature="0"
       style="fill:#a3195b" /><path
       d="m 503.3,1254.7 c 0.1,-0.1 0.1,-0.1 0,0 0.1,-0.1 0.2,-0.1 0.3,-0.1 3.7,-1.9 6.7,-3.9 9,-6 -5.5,2.1 -9.3,6.1 -9.3,6.1 z"
       id="path274"
       inkscape:connector-curvature="0"
       style="fill:#dc6ba6" /><path
       d="m 503.4,1254.6 0.2,0 -0.2,0 z"
       id="path276"
       inkscape:connector-curvature="0"
       style="fill:#dc6ba6" /><path
       d="m 508.3,1244.7 c -3.7,4.6 -5,9.9 -5,9.9 2.4,-3.5 4,-6.8 5,-9.9 z"
       id="path278"
       inkscape:connector-curvature="0"
       style="fill:#dc6ba6" /><circle
       cx="503.29999"
       cy="1254.7"
       r="7.4000001"
       id="circle280"
       style="fill:#cdd95b" /></g><g
     stroke-miterlimit="10"
     id="g282"
     style="stroke:#422c13;stroke-miterlimit:10"
     transform="matrix(0.1480664,0,0,0.14806641,-33.270069,-164.28993)"><path
       d="m 582.2,1235.4 c -3.3,1 -7.1,1.1 -11.7,-0.4 2.9,2.3 5.5,5.7 6.1,10.3 3.2,0.7 6.4,0.4 9.4,-0.5 0,-0.2 -0.1,-0.3 -0.1,-0.3 -0.6,-3.9 -1.9,-6.8 -3.7,-9.1 z"
       id="path284"
       inkscape:connector-curvature="0"
       style="fill:#cdd95b;stroke-width:0.86510003" /><path
       d="m 561.1,1230.4 c -0.1,-0.1 0,-0.1 0,0 z"
       id="path286"
       inkscape:connector-curvature="0"
       style="fill:#dc6ba6;stroke-width:0.86510003" /><path
       d="m 576.7,1245.3 c -3.3,-0.8 -6.6,-2.7 -9.8,-6.2 1.3,3.4 1.9,7.5 0.2,11.8 2.4,2.2 5.2,3.6 8.2,4.3 l 0,-0.1 c 1.5,-3.7 1.8,-7 1.4,-9.8 z"
       id="path288"
       inkscape:connector-curvature="0"
       style="fill:#cdd95b;stroke-width:0.86510003" /><path
       d="m 561.2,1230.4 c 0.6,0.6 3.9,4 5.8,8.8 3.1,3.5 6.4,5.4 9.7,6.1 -0.6,-4.6 -3.2,-7.9 -6.1,-10.2 -2.8,-1 -6,-2.5 -9.4,-4.7 z"
       id="path290"
       inkscape:connector-curvature="0"
       style="fill:#96862b;stroke-width:0.86059999" /><path
       d="m 567.1,1251 c -2.5,-2.4 -4.4,-5.7 -5.4,-10.4 -0.5,3.8 -2.1,7.8 -5.9,10.8 0.9,3.1 2.8,5.7 5,7.8 0.1,-0.1 0.2,-0.1 0.2,-0.1 3.1,-2.7 5.1,-5.4 6.1,-8.1 z"
       id="path292"
       inkscape:connector-curvature="0"
       style="fill:#cdd95b;stroke-width:0.86510003" /><path
       d="m 561.1,1230.5 0,-0.1 c 0,-0.1 -0.1,-0.1 -0.1,-0.2 0,0.1 0.1,0.2 0.1,0.3 z"
       id="path294"
       inkscape:connector-curvature="0"
       style="fill:#dc6ba6;stroke-width:0.86510003" /><path
       d="m 561.1,1230.4 c -0.1,-0.1 -0.1,-0.2 -0.1,-0.2 0.1,0.1 0.1,0.2 0.1,0.2 z"
       id="path296"
       inkscape:connector-curvature="0"
       style="fill:#dc6ba6;stroke-width:0.86510003" /><path
       d="m 561.2,1230.6 c 0.3,1.1 1.3,5.3 0.6,10 1,4.7 2.9,8 5.4,10.4 1.7,-4.3 1.1,-8.4 -0.2,-11.8 -2,-2.2 -3.9,-5.1 -5.8,-8.7 l 0,0.1 z"
       id="path298"
       inkscape:connector-curvature="0"
       style="fill:#96862b;stroke-width:0.86059999" /><path
       d="m 561.1,1230.4 c 1.8,3.7 3.8,6.6 5.8,8.8 -1.9,-4.8 -5.2,-8.3 -5.8,-8.8 z"
       id="path300"
       inkscape:connector-curvature="0"
       style="fill:#dc6ba6;stroke-width:0.86510003" /><path
       d="m 555.8,1251.4 c -1,-3.2 -1,-7.1 0.4,-11.6 -2.3,2.9 -5.7,5.5 -10.3,6.1 -0.7,3.2 -0.5,6.3 0.4,9.3 l 0.2,0 c 4.1,-0.7 7.1,-2.1 9.3,-3.8 z"
       id="path302"
       inkscape:connector-curvature="0"
       style="fill:#cdd95b;stroke-width:0.86510003" /><path
       d="m 561.2,1230.6 c 0,-0.2 -0.1,-0.3 -0.1,-0.3 0,0 -1.2,5.1 -4.7,9.5 -1.4,4.5 -1.4,8.3 -0.4,11.5 3.8,-2.9 5.3,-7 5.9,-10.7 -0.7,-2.9 -0.9,-6.2 -0.7,-10 z"
       id="path304"
       inkscape:connector-curvature="0"
       style="fill:#96862b;stroke-width:0.86059999" /><path
       d="m 561.1,1230.5 c -0.2,3.9 0,7.2 0.6,10 0.7,-4.6 -0.3,-8.8 -0.6,-10 z"
       id="path306"
       inkscape:connector-curvature="0"
       style="fill:#dc6ba6;stroke-width:0.86510003" /><path
       d="m 546,1245.9 c 0.8,-3.3 2.7,-6.6 6.2,-9.8 -3.5,1.3 -7.6,1.9 -12,0.2 -2.2,2.4 -3.5,5.2 -4.3,8.3 0.1,0 0.2,0.1 0.2,0.1 3.8,1.3 7.1,1.6 9.9,1.2 z"
       id="path308"
       inkscape:connector-curvature="0"
       style="fill:#cdd95b;stroke-width:0.86510003" /><path
       d="m 552.3,1236.1 c -3.5,3.1 -5.4,6.4 -6.1,9.7 4.6,-0.6 7.9,-3.2 10.2,-6.1 0.9,-2.9 2.5,-6 4.7,-9.5 0,0.1 -3.6,3.9 -8.8,5.9 z"
       id="path310"
       inkscape:connector-curvature="0"
       style="fill:#96862b;stroke-width:0.86059999" /><path
       d="m 556.3,1239.8 c 3.6,-4.4 4.8,-9.5 4.8,-9.5 -2.4,3.4 -3.9,6.6 -4.8,9.5 z"
       id="path312"
       inkscape:connector-curvature="0"
       style="fill:#ff5792;stroke-width:0.86510003" /><path
       d="m 540.2,1236.3 c 2.3,-2.5 5.6,-4.4 10.2,-5.4 -3.7,-0.6 -7.6,-2.2 -10.4,-5.9 -3.1,0.9 -5.7,2.8 -7.8,5 0.1,0.1 0.1,0.2 0.1,0.2 2.6,3.1 5.2,5 7.9,6.1 z"
       id="path314"
       inkscape:connector-curvature="0"
       style="fill:#cdd95b;stroke-width:0.86510003" /><path
       d="m 550.4,1230.9 c -4.6,1 -7.9,2.9 -10.2,5.4 4.3,1.8 8.5,1.2 12,-0.2 2.3,-2 5.2,-4 8.9,-5.9 -0.1,0.1 -5.1,1.6 -10.7,0.7 z"
       id="path316"
       inkscape:connector-curvature="0"
       style="fill:#96862b;stroke-width:0.86510003" /><path
       d="m 561,1230.3 c -3.7,1.9 -6.6,3.8 -8.9,5.9 5.3,-2.1 8.9,-5.9 8.9,-5.9 z"
       id="path318"
       inkscape:connector-curvature="0"
       style="fill:#ff5792;stroke-width:0.86510003" /><path
       d="m 539.9,1225.1 c 3.2,-1 7.1,-1 11.6,0.4 -2.9,-2.3 -5.5,-5.7 -6.1,-10.3 -3.2,-0.7 -6.3,-0.5 -9.3,0.4 l 0,0.2 c 0.7,4 2.1,7 3.8,9.3 z"
       id="path320"
       inkscape:connector-curvature="0"
       style="fill:#cdd95b;stroke-width:0.86510003" /><path
       d="m 561,1230.3 c 0,0 -5.1,-1.2 -9.5,-4.8 -4.5,-1.4 -8.3,-1.4 -11.6,-0.4 2.9,3.7 6.8,5.3 10.4,5.9 3.1,-0.7 6.6,-1 10.7,-0.7 z"
       id="path322"
       inkscape:connector-curvature="0"
       style="fill:#96862b;stroke-width:0.86510003" /><path
       d="m 561,1230.3 c -4.2,-0.2 -7.7,0 -10.6,0.6 5.6,0.9 10.6,-0.6 10.6,-0.6 z"
       id="path324"
       inkscape:connector-curvature="0"
       style="fill:#dc6ba6;stroke-width:0.86510003" /><path
       d="m 545.4,1215.2 c 3.3,0.8 6.6,2.7 9.8,6.2 -1.3,-3.5 -1.9,-7.6 -0.2,-12 -2.4,-2.2 -5.2,-3.5 -8.3,-4.3 0,0.1 -0.1,0.2 -0.1,0.2 -1.3,3.9 -1.6,7.1 -1.2,9.9 z"
       id="path326"
       inkscape:connector-curvature="0"
       style="fill:#cdd95b;stroke-width:0.86510003" /><path
       d="m 555.2,1221.4 c -3.2,-3.5 -6.5,-5.4 -9.8,-6.2 0.6,4.6 3.2,8 6.1,10.3 2.9,0.9 6.1,2.5 9.5,4.8 0,0 -3.8,-3.6 -5.8,-8.9 z"
       id="path328"
       inkscape:connector-curvature="0"
       style="fill:#96862b;stroke-width:0.86510003" /><path
       d="m 551.5,1225.5 c 4.4,3.6 9.5,4.8 9.5,4.8 -3.4,-2.3 -6.6,-3.9 -9.5,-4.8 z"
       id="path330"
       inkscape:connector-curvature="0"
       style="fill:#dc6ba6;stroke-width:0.86510003" /><path
       d="m 555,1209.4 c 2.5,2.3 4.4,5.6 5.4,10.2 0.6,-3.7 2.2,-7.6 5.9,-10.4 -0.9,-3.1 -2.8,-5.7 -5,-7.8 -0.1,0.1 -0.2,0.1 -0.2,0.1 -3.1,2.6 -5,5.3 -6.1,7.9 z"
       id="path332"
       inkscape:connector-curvature="0"
       style="fill:#cdd95b;stroke-width:0.86510003" /><path
       d="m 560.4,1219.6 c -1,-4.6 -2.9,-7.9 -5.4,-10.2 -1.8,4.3 -1.2,8.5 0.2,12 2,2.3 4,5.2 5.9,8.9 -0.1,0 -1.6,-5.1 -0.7,-10.7 z"
       id="path334"
       inkscape:connector-curvature="0"
       style="fill:#96862b;stroke-width:0.86510003" /><path
       d="m 561,1230.3 c -1.9,-3.7 -3.8,-6.6 -5.9,-8.9 2.1,5.3 5.9,8.9 5.9,8.9 z"
       id="path336"
       inkscape:connector-curvature="0"
       style="fill:#dc6ba6;stroke-width:0.86510003" /><path
       d="m 566.2,1209.2 c 1,3.2 1,7.1 -0.4,11.6 2.3,-2.9 5.7,-5.5 10.3,-6.1 0.7,-3.2 0.5,-6.3 -0.4,-9.3 l -0.2,0 c -4.1,0.7 -7,2 -9.3,3.8 z"
       id="path338"
       inkscape:connector-curvature="0"
       style="fill:#cdd95b;stroke-width:0.86510003" /><path
       d="m 561,1230.3 c 0,0 1.2,-5.1 4.8,-9.5 1.4,-4.5 1.4,-8.3 0.4,-11.6 -3.7,2.9 -5.3,6.8 -5.9,10.4 0.7,3 1,6.5 0.7,10.7 z"
       id="path340"
       inkscape:connector-curvature="0"
       style="fill:#96862b;stroke-width:0.86510003" /><path
       d="m 561,1230.3 c 0.2,-4.2 0,-7.7 -0.6,-10.6 -0.9,5.5 0.6,10.6 0.6,10.6 z"
       id="path342"
       inkscape:connector-curvature="0"
       style="fill:#dc6ba6;stroke-width:0.86510003" /><path
       d="m 581.9,1224.2 c -2.3,2.4 -5.5,4.3 -10,5.3 3.6,0.6 7.5,2.2 10.3,5.9 3.1,-1 5.6,-2.8 7.7,-5 -0.1,-0.1 -0.1,-0.2 -0.1,-0.2 -2.6,-3 -5.3,-4.9 -7.9,-6 z"
       id="path344"
       inkscape:connector-curvature="0"
       style="fill:#cdd95b;stroke-width:0.86510003" /><path
       d="m 561.1,1230.3 c -0.1,0 0,0 0,0 z"
       id="path346"
       inkscape:connector-curvature="0"
       style="fill:#dc6ba6;stroke-width:0.86510003" /><path
       d="m 572,1229.6 c -3,0.7 -6.5,0.9 -10.8,0.7 0.7,0.2 5.3,1.5 9.4,4.7 4.5,1.5 8.4,1.4 11.6,0.4 -2.8,-3.6 -6.6,-5.2 -10.2,-5.8 z"
       id="path348"
       inkscape:connector-curvature="0"
       style="fill:#96862b;stroke-width:0.86059999" /><path
       d="m 561.1,1230.3 c 0,0 -0.1,0 0,0 z"
       id="path350"
       inkscape:connector-curvature="0"
       style="fill:#dc6ba6;stroke-width:0.86510003" /><path
       d="m 561.1,1230.3 c 3.4,2.3 6.6,3.8 9.5,4.7 -4.1,-3.2 -8.8,-4.5 -9.5,-4.7 z"
       id="path352"
       inkscape:connector-curvature="0"
       style="fill:#dc6ba6;stroke-width:0.86510003" /><path
       d="m 576.1,1214.6 c -0.8,3.3 -2.7,6.6 -6.2,9.8 3.5,-1.3 7.6,-1.9 12,-0.2 2.2,-2.4 3.5,-5.2 4.3,-8.3 -0.1,0 -0.2,-0.1 -0.2,-0.1 -3.9,-1.3 -7.1,-1.6 -9.9,-1.2 z"
       id="path354"
       inkscape:connector-curvature="0"
       style="fill:#cdd95b;stroke-width:0.86510003" /><path
       d="m 561,1230.3 c 0.1,0 0.1,0 0,0 0.1,0 0.1,-0.1 0,0 0.1,-0.1 0.1,0 0,0 z"
       id="path356"
       inkscape:connector-curvature="0"
       style="fill:#dc6ba6;stroke-width:0.86510003" /><path
       d="m 572,1229.6 c 4.4,-1 7.6,-2.9 9.9,-5.3 -4.3,-1.8 -8.5,-1.2 -11.9,0.2 -2.2,2 -5,3.9 -8.6,5.7 0.9,-0.3 5.5,-1.4 10.6,-0.6 z"
       id="path358"
       inkscape:connector-curvature="0"
       style="fill:#96862b;stroke-width:0.86059999" /><path
       d="m 561.3,1230.1 c -0.1,0 -0.1,0.1 -0.2,0.1 l 0,0.1 c 4.2,0.2 7.8,0 10.8,-0.7 -5,-0.9 -9.7,0.3 -10.6,0.5 z"
       id="path360"
       inkscape:connector-curvature="0"
       style="fill:#dc6ba6;stroke-width:0.86510003" /><path
       d="m 570,1224.4 c 3.5,-3.1 5.4,-6.4 6.1,-9.7 -4.6,0.6 -7.9,3.2 -10.2,6.1 -0.9,2.9 -2.5,6 -4.7,9.5 -0.1,0 3.5,-3.8 8.8,-5.9 z"
       id="path362"
       inkscape:connector-curvature="0"
       style="fill:#96862b;stroke-width:0.86059999" /><path
       d="m 561,1230.3 c 0.1,0 0.1,-0.1 0,0 0.1,-0.1 0.1,-0.1 0,0 0.1,-0.1 0.2,-0.1 0.3,-0.1 3.6,-1.8 6.4,-3.8 8.6,-5.7 -5.3,1.9 -8.9,5.8 -8.9,5.8 z"
       id="path364"
       inkscape:connector-curvature="0"
       style="fill:#dc6ba6;stroke-width:0.86510003" /><path
       d="m 561.1,1230.2 0.2,0 -0.2,0 z"
       id="path366"
       inkscape:connector-curvature="0"
       style="fill:#dc6ba6;stroke-width:0.86510003" /><path
       d="m 565.8,1220.7 c -3.6,4.4 -4.8,9.5 -4.8,9.5 2.3,-3.4 3.9,-6.6 4.8,-9.5 z"
       id="path368"
       inkscape:connector-curvature="0"
       style="fill:#dc6ba6;stroke-width:0.86510003" /><circle
       cx="561"
       cy="1230.3"
       r="7.0999999"
       id="circle370"
       style="fill:#a3195b;stroke-width:0.86510003" /></g></svg>